<svg width="37" height="57" viewBox="0 0 37 57" fill="none" xmlns="http://www.w3.org/2000/svg">
<mask id="mask0" style="mask-type:alpha" maskUnits="userSpaceOnUse" x="0" y="16" width="36" height="26">
<path d="M3.23438 20.2812L2.41868 19.7028L2.4181 19.7036L3.23438 20.2812ZM15.1875 37.3594L14.3706 36.7825L14.3687 36.7853L15.1875 37.3594ZM9.07812 39.3906C6.67552 39.3906 5.00641 38.566 3.8927 37.002C2.73451 35.3755 2.07812 32.8126 2.07812 29.1562H0.078125C0.078125 32.9894 0.755075 36.0437 2.26355 38.1621C3.81651 40.3429 6.1474 41.3906 9.07812 41.3906V39.3906ZM2.07812 29.1562C2.07812 25.3698 2.78273 22.6505 4.05065 20.8589L2.4181 19.7036C0.811015 21.9745 0.078125 25.1719 0.078125 29.1562H2.07812ZM4.05007 20.8597C5.29069 19.1104 7.0644 18.2188 9.51562 18.2188V16.2188C6.48768 16.2188 4.07389 17.3688 2.41868 19.7028L4.05007 20.8597ZM9.51562 18.2188C11.8393 18.2188 13.4603 19.0462 14.5496 20.6388C15.6856 22.2996 16.3281 24.9162 16.3281 28.6406H18.3281C18.3281 24.7505 17.6686 21.6561 16.2004 19.5097C14.6855 17.2949 12.4003 16.2188 9.51562 16.2188V18.2188ZM16.3281 28.6406C16.3281 32.3287 15.6304 34.9986 14.3706 36.7825L16.0044 37.9362C17.5987 35.6785 18.3281 32.5359 18.3281 28.6406H16.3281ZM14.3687 36.7853C13.1554 38.5161 11.4376 39.3906 9.07812 39.3906V41.3906C12.0312 41.3906 14.3863 40.2443 16.0063 37.9334L14.3687 36.7853ZM9.29688 19.9844C8.53397 19.9844 7.83819 20.231 7.25349 20.7206C6.68673 21.1952 6.27144 21.8575 5.96543 22.6263C5.36021 24.1467 5.09375 26.312 5.09375 29.0312H7.09375C7.09375 26.3859 7.36114 24.5278 7.82363 23.3659C8.05148 22.7935 8.30351 22.45 8.53753 22.254C8.75361 22.073 8.99208 21.9844 9.29688 21.9844V19.9844ZM5.09375 29.0312C5.09375 31.5963 5.35516 33.6501 5.9551 35.0977C6.25911 35.8313 6.672 36.4633 7.23361 36.915C7.81117 37.3795 8.49257 37.6094 9.23438 37.6094V35.6094C8.9293 35.6094 8.69468 35.5235 8.48709 35.3565C8.26355 35.1767 8.02214 34.8614 7.80271 34.332C7.35578 33.2536 7.09375 31.5183 7.09375 29.0312H5.09375ZM9.23438 37.6094C9.97805 37.6094 10.6553 37.3648 11.222 36.8829C11.7701 36.4169 12.1692 35.7689 12.4623 35.0212C13.0422 33.5419 13.2969 31.4372 13.2969 28.7969H11.2969C11.2969 31.3649 11.0412 33.1665 10.6002 34.2913C10.3829 34.8456 10.144 35.1743 9.92642 35.3593C9.72753 35.5284 9.51153 35.6094 9.23438 35.6094V37.6094ZM13.2969 28.7969C13.2969 26.1575 13.0474 24.0557 12.4804 22.579C12.1941 21.8333 11.8036 21.1851 11.2649 20.7175C10.7066 20.2329 10.0359 19.9844 9.29688 19.9844V21.9844C9.55784 21.9844 9.76212 22.0614 9.95385 22.2278C10.1652 22.4113 10.3997 22.7396 10.6133 23.296C11.0463 24.4235 11.2969 26.2279 11.2969 28.7969H13.2969ZM20.625 39.4219H19.625V40.0746L20.2225 40.3373L20.625 39.4219ZM20.625 35.2031L21.1472 34.3503L19.625 33.4183V35.2031H20.625ZM28.5625 35.6875L29.207 36.4521L29.208 36.4513L28.5625 35.6875ZM20.9688 30.0938L19.971 30.0264L19.89 31.2271L21.0852 31.0869L20.9688 30.0938ZM21.8125 17.5938V16.5938H20.8777L20.8148 17.5264L21.8125 17.5938ZM33.6719 17.5938H34.6719V16.5938H33.6719V17.5938ZM33.6719 21.625V22.625H34.6719V21.625H33.6719ZM25.5781 21.625V20.625H24.6454L24.5805 21.5555L25.5781 21.625ZM25.2656 26.1094L24.268 26.0399L24.1874 27.1964L25.3433 27.1064L25.2656 26.1094ZM32.375 38.25L33.0518 38.9861L33.0545 38.9837L32.375 38.25ZM21.625 39.4219V35.2031H19.625V39.4219H21.625ZM20.1028 36.056C21.7849 37.0858 23.5949 37.6094 25.5156 37.6094V35.6094C23.978 35.6094 22.5276 35.1954 21.1472 34.3503L20.1028 36.056ZM25.5156 37.6094C26.9674 37.6094 28.241 37.2663 29.207 36.4521L27.918 34.9229C27.4256 35.3379 26.668 35.6094 25.5156 35.6094V37.6094ZM29.208 36.4513C30.196 35.6163 30.6719 34.4807 30.6719 33.1562H28.6719C28.6719 33.9568 28.4082 34.5087 27.917 34.9237L29.208 36.4513ZM30.6719 33.1562C30.6719 31.7803 30.1665 30.6171 29.0737 29.8439C28.0444 29.1155 26.624 28.8281 24.9688 28.8281V30.8281C26.4489 30.8281 27.3801 31.0955 27.9185 31.4764C28.3934 31.8125 28.6719 32.3134 28.6719 33.1562H30.6719ZM24.9688 28.8281C23.7637 28.8281 22.3901 28.9203 20.8523 29.1006L21.0852 31.0869C22.5682 30.9131 23.8613 30.8281 24.9688 30.8281V28.8281ZM21.9665 30.1611L22.8102 17.6611L20.8148 17.5264L19.971 30.0264L21.9665 30.1611ZM21.8125 18.5938H33.6719V16.5938H21.8125V18.5938ZM32.6719 17.5938V21.625H34.6719V17.5938H32.6719ZM33.6719 20.625H25.5781V22.625H33.6719V20.625ZM24.5805 21.5555L24.268 26.0399L26.2632 26.1789L26.5757 21.6945L24.5805 21.5555ZM25.3433 27.1064C26.1285 27.0452 26.794 27.0156 27.3438 27.0156V25.0156C26.7269 25.0156 26.007 25.0486 25.1879 25.1124L25.3433 27.1064ZM27.3438 27.0156C29.4706 27.0156 31.0023 27.5705 32.0698 28.5611L33.4302 27.0951C31.8936 25.6691 29.8211 25.0156 27.3438 25.0156V27.0156ZM32.0698 28.5611C33.1368 29.5513 33.7031 30.894 33.7031 32.7031H35.7031C35.7031 30.4289 34.9674 28.5216 33.4302 27.0951L32.0698 28.5611ZM33.7031 32.7031C33.7031 34.7064 33.0281 36.2821 31.6955 37.5163L33.0545 38.9837C34.8261 37.3429 35.7031 35.2207 35.7031 32.7031H33.7031ZM31.6982 37.5139C30.3751 38.7304 28.5358 39.3906 26.0625 39.3906V41.3906C28.9017 41.3906 31.2707 40.6238 33.0518 38.9861L31.6982 37.5139ZM26.0625 39.3906C23.9998 39.3906 22.3338 39.0809 21.0275 38.5065L20.2225 40.3373C21.8537 41.0546 23.8127 41.3906 26.0625 41.3906V39.3906Z" fill="black"/>
</mask>
<g mask="url(#mask0)">
<path d="M-6 9H37V19H-6V9Z" fill="#C4C4C4"/>
</g>
<path d="M9.07812 43.3906C3.74479 43.3906 1.07812 39.6458 1.07812 32.1562C1.07812 28.2708 1.79688 25.3125 3.23438 23.2812C4.68229 21.2396 6.77604 20.2188 9.51562 20.2188C14.724 20.2188 17.3281 24.026 17.3281 31.6406C17.3281 35.4323 16.6146 38.3385 15.1875 40.3594C13.7708 42.3802 11.7344 43.3906 9.07812 43.3906ZM9.29688 23.9844C7.16146 23.9844 6.09375 26.6667 6.09375 32.0312C6.09375 37.0833 7.14062 39.6094 9.23438 39.6094C11.276 39.6094 12.2969 37.0052 12.2969 31.7969C12.2969 26.5885 11.2969 23.9844 9.29688 23.9844ZM20.625 42.4219V38.2031C22.1562 39.1406 23.7865 39.6094 25.5156 39.6094C26.8177 39.6094 27.8333 39.3021 28.5625 38.6875C29.3021 38.0625 29.6719 37.2188 29.6719 36.1562C29.6719 33.9375 28.1042 32.8281 24.9688 32.8281C23.8125 32.8281 22.4792 32.9167 20.9688 33.0938L21.8125 20.5938H33.6719V24.625H25.5781L25.2656 29.1094C26.0677 29.0469 26.7604 29.0156 27.3438 29.0156C29.6458 29.0156 31.4479 29.6198 32.75 30.8281C34.0521 32.0365 34.7031 33.6615 34.7031 35.7031C34.7031 37.9635 33.9271 39.8125 32.375 41.25C30.8229 42.6771 28.7188 43.3906 26.0625 43.3906C23.9062 43.3906 22.0938 43.0677 20.625 42.4219Z" fill="black"/>
</svg>
