<svg width="81" height="100" viewBox="0 0 81 100" fill="none" xmlns="http://www.w3.org/2000/svg">
<path d="M80.0025 47.9612V39.961C79.9952 32.7382 78.0325 25.6522 74.3226 19.4551C70.6127 13.2579 65.2941 8.18087 58.9314 4.76279C52.5686 1.34471 45.3991 -0.28684 38.1839 0.0413147C30.9686 0.36947 23.9768 2.64508 17.9506 6.62662C16.4854 7.53053 15.1073 8.56834 13.8338 9.72672L13.3337 10.1267C9.13645 13.8809 5.7791 18.479 3.48138 23.6202C1.18365 28.7613 -0.0026829 34.3297 4.55583e-06 39.961V59.9616C4.55583e-06 61.0283 4.55741e-06 62.095 0.133342 63.145C0.266679 64.1951 0.38335 65.6784 0.600023 66.9118C0.600023 67.1285 0.700026 67.3285 0.73336 67.5452C0.833364 68.0785 0.933367 68.6119 1.0667 69.2119C1.09782 69.3528 1.13677 69.4919 1.18337 69.6286C1.31671 70.2286 1.46672 70.8119 1.65006 71.3953C1.83339 71.9786 1.8834 72.1286 2.00007 72.4786C2.11674 72.8287 2.21674 73.1953 2.35008 73.5287C2.58342 74.1787 2.83343 74.8121 3.1001 75.4454C3.09346 75.5008 3.09346 75.5567 3.1001 75.6121C3.31677 76.1454 3.56678 76.6621 3.81679 77.1788C3.81679 77.3288 3.95013 77.4955 4.03346 77.6455C4.28347 78.1455 4.55014 78.6288 4.81682 79.1289C4.81682 79.2789 4.96682 79.4455 5.06683 79.5955C5.36684 80.1289 5.68351 80.6622 6.01686 81.1789L6.20019 81.4956C6.60021 82.1123 7.01689 82.7123 7.43357 83.3123C9.57192 86.303 12.119 88.9791 15.0005 91.2626L15.2505 91.4626C15.8505 91.9459 16.4672 92.3793 17.1005 92.7959C23.0994 96.9847 30.1322 99.4479 37.4336 99.9175C44.7351 100.387 52.0255 98.8452 58.5115 95.4596C64.9976 92.0739 70.4308 86.9741 74.22 80.7153C78.0092 74.4564 80.0093 67.2781 80.0025 59.9616V51.9614H60.0019V59.9616C60.0028 60.8986 59.9359 61.8344 59.8018 62.7617C59.1272 67.5331 56.7526 71.9005 53.1146 75.0607C49.4767 78.221 44.8201 79.9615 40.0012 79.9622C39.2718 79.9653 38.5428 79.9264 37.8178 79.8455C37.2511 79.8455 36.6845 79.6955 36.1511 79.5789L35.5344 79.4455L34.5344 79.1789L33.7677 78.9455L33.001 78.6622C32.7177 78.5622 32.4177 78.4455 32.1343 78.3122L31.6343 78.0788C29.9435 77.2996 28.3722 76.2838 26.9675 75.0621V75.0621C26.5842 74.7287 26.2008 74.3787 25.8508 74.012C25.5008 73.662 25.1508 73.2787 24.8174 72.8953L24.6841 72.7287C24.3341 72.2953 23.9841 71.862 23.6674 71.3953L23.3341 71.0453L22.734 69.9619C22.584 69.7119 22.434 69.4452 22.3007 69.1785L21.9673 68.5285C21.834 68.2619 21.7173 67.9785 21.6007 67.6952L21.4507 67.3618C21.4507 67.1951 21.334 67.0285 21.2673 66.8785C21.2007 66.7285 21.0006 66.1285 20.884 65.7451C20.7673 65.3618 20.884 65.4951 20.7673 65.3784C20.6506 65.2618 20.6006 64.6951 20.5173 64.3451C20.434 63.9951 20.434 64.0451 20.4006 63.8784C20.3673 63.7117 20.4006 63.6284 20.4006 63.5117C20.3006 62.9784 20.234 62.4617 20.1673 61.9283C20.1673 61.8283 20.1673 61.7283 20.1673 61.6283C20.1673 61.0616 20.084 60.4949 20.084 59.9616V39.961C20.084 39.361 20.084 38.7776 20.1673 38.1943C20.2506 37.6109 20.1673 37.4609 20.3173 37.0942C20.3103 37.0166 20.3103 36.9385 20.3173 36.8609C20.3173 36.7609 20.3173 36.6609 20.3173 36.5442C20.4006 36.0775 20.5173 35.6108 20.634 35.1442C20.6262 35.0945 20.6262 35.0439 20.634 34.9942C20.7673 34.483 20.9173 33.983 21.084 33.4941C21.1673 33.2441 21.234 32.9941 21.334 32.7608V32.5274C21.5291 32.0321 21.7517 31.5479 22.0007 31.0774L22.1007 30.8607C22.3507 30.3774 22.6007 29.9107 22.884 29.4607L23.0007 29.294C23.2174 28.944 23.4674 28.594 23.7174 28.244L23.9174 27.9439L24.0007 27.8439L24.8174 26.8606L25.1674 26.6272C25.5341 26.2106 25.9341 25.8272 26.3341 25.4439L26.4675 25.3105C26.8675 24.955 27.2675 24.6216 27.6675 24.3105L27.9009 24.1272L28.6842 23.5771L29.1342 23.2605L29.4176 23.0771L29.7509 22.8938L30.7009 22.3438L31.0343 22.1771C31.4676 21.9604 31.901 21.7604 32.351 21.5771L32.7343 21.4271C33.1808 21.2413 33.6371 21.0799 34.101 20.9437L34.5011 20.8271L35.1844 20.6604L35.9178 20.477L36.3178 20.3937L37.6345 20.1937C38.4185 20.0722 39.2086 19.9943 40.0012 19.9604C44.838 19.9604 49.5108 21.7132 53.1544 24.8941C56.798 28.075 59.1656 32.4684 59.8185 37.2609C59.947 38.1551 60.0083 39.0576 60.0019 39.961V47.9612H80.0025Z" fill="white"/>
</svg>
