<svg width="201" height="98" viewBox="0 0 201 98" fill="none" xmlns="http://www.w3.org/2000/svg">
<path d="M104.623 97.8798C97.4229 97.8798 92.6061 94.913 90.2727 89.0795L89.806 87.8962H96.7729L96.8895 88.0628C97.701 89.3116 98.8372 90.3158 100.176 90.9677C101.515 91.6195 103.006 91.8945 104.49 91.7629C106.124 91.8038 107.744 91.4432 109.207 90.7129C110.306 90.2008 111.216 89.3551 111.807 88.2962C112.16 87.5173 112.375 86.6824 112.44 85.8294C111.769 86.3023 111.055 86.7097 110.307 87.0461C108.355 87.9116 106.242 88.3546 104.106 88.3462C101.28 88.4107 98.5003 87.619 96.132 86.0751C93.7637 84.5313 91.9176 82.3073 90.836 79.6953C89.7544 77.0833 89.488 74.2053 90.0716 71.4391C90.6552 68.673 92.0616 66.1479 94.1061 64.1954C95.4773 62.835 97.1068 61.7626 98.8986 61.0412C100.69 60.3199 102.608 59.9643 104.54 59.9953C107.439 59.9934 110.254 60.9746 112.523 62.7787V60.6287H118.974V81.496C119.098 84.221 118.766 86.9476 117.99 89.5629C117.363 91.3005 116.342 92.8693 115.007 94.1464C113.669 95.3941 112.085 96.348 110.357 96.9464C108.51 97.5736 106.573 97.889 104.623 97.8798V97.8798ZM104.723 66.2122C102.519 66.1854 100.393 67.0334 98.8126 68.5703C97.2319 70.1073 96.3246 72.208 96.2895 74.4124C96.2711 75.4222 96.4648 76.4246 96.8581 77.3548C97.2515 78.285 97.8357 79.1223 98.5729 79.8126C100.233 81.2328 102.346 82.0132 104.531 82.0132C106.716 82.0132 108.83 81.2328 110.49 79.8126C111.244 79.0839 111.834 78.2034 112.222 77.2293C112.61 76.2552 112.787 75.2098 112.74 74.1624C112.763 73.1034 112.571 72.0507 112.176 71.0678C111.781 70.0848 111.192 69.192 110.443 68.443C109.694 67.6939 108.801 67.1043 107.818 66.7094C106.835 66.3146 105.782 66.1228 104.723 66.1455V66.2122ZM169.725 89.5462C168.95 89.601 168.173 89.4945 167.441 89.2335C166.709 88.9724 166.04 88.5624 165.475 88.0295C164.452 86.8198 163.938 85.2603 164.042 83.6794V66.5788H159.625V60.6287H164.042V51.0284H170.342V60.6287H175.342V66.5622H170.342V82.046C170.342 82.3835 170.475 82.7074 170.712 82.9476C170.949 83.1878 171.271 83.325 171.608 83.3294H174.259V89.5795L169.725 89.5462ZM59.7217 89.5462C57.9329 89.5326 56.173 89.0927 54.5882 88.2628C53.6498 87.8096 52.7801 87.226 52.0048 86.5295C49.9381 84.6127 50.2214 84.296 50.3381 84.1627L54.2549 79.7959L55.4549 81.1293C56.4881 82.3878 57.9706 83.1948 59.5884 83.3794C60.2762 83.3755 60.9415 83.1341 61.4718 82.696C61.7738 82.453 62.0217 82.1495 62.1997 81.8051C62.3776 81.4607 62.4817 81.0829 62.5052 80.6959C62.522 80.3848 62.4695 80.0739 62.3513 79.7856C62.2331 79.4973 62.0522 79.2389 61.8218 79.0292C60.7158 78.1298 59.5006 77.3738 58.205 76.7791C56.4244 75.9467 54.8311 74.7616 53.5215 73.2957C52.3127 71.7805 51.686 69.8827 51.7548 67.9455C51.7557 66.8832 51.9768 65.8327 52.4043 64.8601C52.8317 63.8876 53.4562 63.0143 54.2382 62.2954C55.9375 60.723 58.1916 59.8897 60.5051 59.9786C62.3602 60.0067 64.1648 60.587 65.6886 61.6454C66.5123 62.1876 67.2824 62.8071 67.9887 63.4954L68.2553 63.7121C68.8387 64.1788 69.222 64.5121 69.2554 64.8454V65.0121L69.1387 65.1455L65.0886 69.2789L63.9385 68.1789C62.9438 67.0305 61.5495 66.3036 60.0384 66.1455C59.5882 66.1195 59.1417 66.2404 58.7661 66.4898C58.3904 66.7393 58.1058 67.1039 57.955 67.5289C57.5383 69.0956 58.555 69.7289 60.7218 70.8623L62.1551 71.6457C66.9553 74.4791 69.072 77.4292 68.822 80.9793C68.6695 83.2071 67.7233 85.3063 66.1553 86.8961C64.422 88.5846 62.0914 89.5192 59.6717 89.4962L59.7217 89.5462ZM146.274 88.7629V73.9624C146.274 72.3268 145.625 70.7583 144.468 69.6018C143.312 68.4453 141.743 67.7955 140.108 67.7955C138.472 67.7955 136.903 68.4453 135.747 69.6018C134.59 70.7583 133.941 72.3268 133.941 73.9624V88.8129H127.34V51.4117H133.841V63.0787C135.759 62.0054 137.923 61.4483 140.121 61.4618C142.319 61.4753 144.475 62.0591 146.38 63.1559C148.285 64.2527 149.872 65.8251 150.987 67.7193C152.102 69.6135 152.707 71.7647 152.741 73.9624V88.7962L146.274 88.7629ZM38.3044 88.7629V73.129C38.2222 71.5468 37.5357 70.0564 36.3866 68.9655C35.2376 67.8746 33.7136 67.2664 32.1292 67.2664C30.5448 67.2664 29.0208 67.8746 27.8718 68.9655C26.7227 70.0564 26.0363 71.5468 25.954 73.129V88.7962H19.3538V73.129C19.3538 72.8957 19.3538 72.6624 19.3538 72.4123V61.312H25.8374V62.2954C27.7535 61.221 29.9153 60.6613 32.1121 60.6708C34.3089 60.6804 36.4658 61.2589 38.3725 62.3499C40.2793 63.4409 41.8709 65.0072 42.9923 66.8963C44.1137 68.7853 44.7266 70.9327 44.7713 73.129V88.7962L38.3044 88.7629ZM75.9056 88.7629V63.1287H82.3558V88.7795L75.9056 88.7629ZM3.73668 88.7629V52.9118H10.4035V88.7629H3.73668ZM79.1223 59.5453C78.002 59.5324 76.9309 59.0827 76.1371 58.2921C75.3433 57.5014 74.8895 56.4321 74.8722 55.3118C74.8686 54.755 74.9758 54.203 75.1876 53.6879C75.3993 53.1729 75.7114 52.7051 76.1056 52.3117C76.5974 51.8127 77.205 51.443 77.8743 51.2356C78.5435 51.0281 79.2537 50.9894 79.9416 51.1227C80.6294 51.2561 81.2737 51.5575 81.8169 52C82.3601 52.4426 82.7855 53.0125 83.0552 53.6592C83.3249 54.3059 83.4306 55.0092 83.3627 55.7066C83.2949 56.404 83.0557 57.0738 82.6664 57.6564C82.2772 58.239 81.7499 58.7163 81.1316 59.0459C80.5132 59.3754 79.823 59.547 79.1223 59.5453V59.5453ZM21.0039 40.2447C17.504 40.2459 14.0645 39.3333 11.0256 37.5971C7.98674 35.861 5.45385 33.3615 3.67755 30.3459C1.90124 27.3303 0.943089 23.9032 0.897901 20.4036C0.852713 16.904 1.72205 13.4533 3.4199 10.3929C5.11775 7.33243 7.58526 4.76834 10.5783 2.95429C13.5713 1.14025 16.9861 0.139125 20.4849 0.0499798C23.9836 -0.039165 27.445 0.786758 30.5265 2.44603C33.608 4.1053 36.2029 6.54041 38.0544 9.51042L38.4211 10.1104L32.2709 13.9606L31.9042 13.3605C30.439 10.9925 28.2443 9.16456 25.6504 8.15173C23.0566 7.1389 20.2039 6.99604 17.5218 7.74466C14.8397 8.49327 12.4733 10.0928 10.7789 12.3026C9.08447 14.5124 8.1537 17.2127 8.12666 19.9972C8.09963 22.7817 8.97781 25.4996 10.629 27.7419C12.2802 29.9841 14.615 31.6293 17.2821 32.4299C19.9492 33.2304 22.8041 33.143 25.4172 32.1807C28.0302 31.2184 30.26 29.4334 31.7709 27.0943L32.1542 26.5109L38.2544 30.4444L37.8711 31.0277C36.0598 33.857 33.5652 36.1844 30.6172 37.7952C27.6693 39.4061 24.3632 40.2485 21.0039 40.2447ZM152.475 39.6613C149.536 39.6646 146.663 38.7961 144.218 37.1655C141.773 35.535 139.867 33.2159 138.741 30.5016C137.615 27.7874 137.32 24.8001 137.892 21.9178C138.464 19.0355 139.879 16.3879 141.957 14.31C144.035 12.2322 146.683 10.8175 149.565 10.245C152.447 9.6725 155.434 9.96799 158.149 11.0941C160.863 12.2201 163.182 14.1261 164.813 16.5708C166.443 19.0155 167.312 21.889 167.308 24.8276C167.3 28.759 165.734 32.5269 162.954 35.3069C160.174 38.0869 156.406 39.6525 152.475 39.6613V39.6613ZM152.475 16.5106C150.826 16.5106 149.215 16.9994 147.845 17.9151C146.474 18.8308 145.406 20.1323 144.775 21.6551C144.145 23.1779 143.98 24.8535 144.301 26.47C144.623 28.0866 145.416 29.5715 146.582 30.737C147.747 31.9024 149.232 32.6961 150.849 33.0177C152.465 33.3392 154.141 33.1742 155.664 32.5435C157.186 31.9127 158.488 30.8446 159.404 29.4741C160.319 28.1037 160.808 26.4924 160.808 24.8442C160.808 22.634 159.93 20.5143 158.367 18.9515C156.804 17.3886 154.685 16.5106 152.475 16.5106V16.5106ZM116.573 39.3947C113.683 39.3962 110.855 38.5502 108.44 36.9613V38.728H102.006V0.776813H108.373V12.1272C110.308 10.8578 112.513 10.0582 114.812 9.79222C117.111 9.52618 119.44 9.80106 121.613 10.5949C123.787 11.3888 125.745 12.6796 127.331 14.3645C128.918 16.0494 130.088 18.0817 130.75 20.2993C131.411 22.5169 131.545 24.8584 131.141 27.137C130.737 29.4155 129.806 31.5682 128.423 33.4231C127.039 35.2781 125.241 36.784 123.172 37.8208C121.103 38.8576 118.821 39.3966 116.507 39.3947H116.573ZM116.573 16.2273C114.655 16.2307 112.797 16.8959 111.312 18.1104C109.827 19.325 108.807 21.0146 108.423 22.8942C108.215 23.9955 108.215 25.1262 108.423 26.2276C108.739 27.7732 109.486 29.1975 110.579 30.335C111.672 31.4724 113.066 32.2763 114.598 32.6532C116.129 33.03 117.737 32.9644 119.233 32.4638C120.729 31.9633 122.052 31.0485 123.048 29.8257C124.045 28.6029 124.674 27.1223 124.862 25.5562C125.051 23.99 124.791 22.4025 124.113 20.9782C123.434 19.554 122.366 18.3514 121.031 17.5104C119.697 16.6694 118.151 16.2245 116.573 16.2273V16.2273ZM58.9884 39.3447C56.675 39.3433 54.394 38.8008 52.3276 37.7606C50.2612 36.7204 48.4668 35.2114 47.0876 33.354C45.7085 31.4966 44.7829 29.3424 44.3848 27.0635C43.9867 24.7846 44.1272 22.4442 44.7949 20.2293C45.4626 18.0143 46.6392 15.9863 48.2305 14.3071C49.8218 12.628 51.7838 11.3443 53.9598 10.5587C56.1357 9.77303 58.4652 9.50721 60.7622 9.78245C63.0592 10.0577 65.2599 10.8664 67.1886 12.1438V10.4771H73.6722V38.528H67.1386V36.8613C64.7262 38.4746 61.8906 39.3386 58.9884 39.3447ZM58.9884 16.194C57.2827 16.192 55.6175 16.7136 54.2176 17.6881C52.8178 18.6627 51.7506 20.0433 51.1604 21.6436C50.5701 23.244 50.4851 24.9868 50.9169 26.637C51.3486 28.2871 52.2763 29.7651 53.5747 30.8712C54.8731 31.9773 56.4797 32.6584 58.1775 32.8225C59.8753 32.9866 61.5825 32.6257 63.0687 31.7887C64.5549 30.9516 65.7484 29.6787 66.4881 28.1417C67.2279 26.6048 67.4782 24.8779 67.2053 23.1942C66.8889 21.2422 65.8887 19.4663 64.3834 18.1839C62.8781 16.9015 60.9659 16.1962 58.9884 16.194V16.194ZM81.4224 38.528V10.0771H87.9226V11.0771C88.9682 10.2129 90.2829 9.74124 91.6394 9.74376C92.9889 9.7614 94.3125 10.1167 95.4895 10.7771L96.9729 11.5938L93.6395 17.0773L93.2394 16.7606C92.8096 16.3772 92.2641 16.1485 91.6894 16.1106H91.6061C90.9922 16.2083 90.4414 16.5436 90.0727 17.044C89.3152 17.9826 88.7848 19.0835 88.5226 20.2607C88.0392 22.9714 87.8492 25.7263 87.9559 28.4777V38.478L81.4224 38.528ZM193.676 38.3446V22.6775C193.676 21.0419 193.026 19.4734 191.87 18.3169C190.713 17.1604 189.145 16.5106 187.509 16.5106C185.873 16.5106 184.305 17.1604 183.148 18.3169C181.992 19.4734 181.342 21.0419 181.342 22.6775V38.3613H174.842V22.6942C174.842 22.4608 174.842 22.2275 174.842 21.9941V10.8605H181.342V11.7605C183.262 10.694 185.425 10.1434 187.621 10.1625C189.817 10.1817 191.97 10.7698 193.871 11.8696C195.772 12.9694 197.355 14.5433 198.466 16.4375C199.577 18.3318 200.177 20.4817 200.209 22.6775V38.3446H193.676Z" fill="white"/>
</svg>
