<svg width="37" height="57" viewBox="0 0 37 57" fill="none" xmlns="http://www.w3.org/2000/svg">
<mask id="mask0" style="mask-type:alpha" maskUnits="userSpaceOnUse" x="0" y="16" width="33" height="26">
<path d="M3.23438 20.2812L2.41868 19.7028L2.4181 19.7036L3.23438 20.2812ZM15.1875 37.3594L14.3706 36.7825L14.3687 36.7853L15.1875 37.3594ZM9.07812 39.3906C6.67552 39.3906 5.00641 38.566 3.8927 37.002C2.73451 35.3755 2.07812 32.8126 2.07812 29.1562H0.078125C0.078125 32.9894 0.755075 36.0437 2.26355 38.1621C3.81651 40.3429 6.1474 41.3906 9.07812 41.3906V39.3906ZM2.07812 29.1562C2.07812 25.3698 2.78273 22.6505 4.05065 20.8589L2.4181 19.7036C0.811015 21.9745 0.078125 25.1719 0.078125 29.1562H2.07812ZM4.05007 20.8597C5.29069 19.1104 7.0644 18.2188 9.51562 18.2188V16.2188C6.48768 16.2188 4.07389 17.3688 2.41868 19.7028L4.05007 20.8597ZM9.51562 18.2188C11.8393 18.2188 13.4603 19.0462 14.5496 20.6388C15.6856 22.2996 16.3281 24.9162 16.3281 28.6406H18.3281C18.3281 24.7505 17.6686 21.6561 16.2004 19.5097C14.6855 17.2949 12.4003 16.2188 9.51562 16.2188V18.2188ZM16.3281 28.6406C16.3281 32.3287 15.6304 34.9986 14.3706 36.7825L16.0044 37.9362C17.5987 35.6785 18.3281 32.5359 18.3281 28.6406H16.3281ZM14.3687 36.7853C13.1554 38.5161 11.4376 39.3906 9.07812 39.3906V41.3906C12.0312 41.3906 14.3863 40.2443 16.0063 37.9334L14.3687 36.7853ZM9.29688 19.9844C8.53397 19.9844 7.83819 20.231 7.25349 20.7206C6.68673 21.1952 6.27144 21.8575 5.96543 22.6263C5.36021 24.1467 5.09375 26.312 5.09375 29.0312H7.09375C7.09375 26.3859 7.36114 24.5278 7.82363 23.3659C8.05148 22.7935 8.30351 22.45 8.53753 22.254C8.75361 22.073 8.99208 21.9844 9.29688 21.9844V19.9844ZM5.09375 29.0312C5.09375 31.5963 5.35516 33.6501 5.9551 35.0977C6.25911 35.8313 6.672 36.4633 7.23361 36.915C7.81117 37.3795 8.49257 37.6094 9.23438 37.6094V35.6094C8.9293 35.6094 8.69468 35.5235 8.48709 35.3565C8.26355 35.1767 8.02214 34.8614 7.80271 34.332C7.35578 33.2536 7.09375 31.5183 7.09375 29.0312H5.09375ZM9.23438 37.6094C9.97805 37.6094 10.6553 37.3648 11.222 36.8829C11.7701 36.4169 12.1692 35.7689 12.4623 35.0212C13.0422 33.5419 13.2969 31.4372 13.2969 28.7969H11.2969C11.2969 31.3649 11.0412 33.1665 10.6002 34.2913C10.3829 34.8456 10.144 35.1743 9.92642 35.3593C9.72753 35.5284 9.51153 35.6094 9.23438 35.6094V37.6094ZM13.2969 28.7969C13.2969 26.1575 13.0474 24.0557 12.4804 22.579C12.1941 21.8333 11.8036 21.1851 11.2649 20.7175C10.7066 20.2329 10.0359 19.9844 9.29688 19.9844V21.9844C9.55784 21.9844 9.76212 22.0614 9.95385 22.2278C10.1652 22.4113 10.3997 22.7396 10.6133 23.296C11.0463 24.4235 11.2969 26.2279 11.2969 28.7969H13.2969ZM31.4062 17.0938H32.4062V16.0938H31.4062V17.0938ZM31.4062 40V41H32.4062V40H31.4062ZM26.4844 40H25.4844V41H26.4844V40ZM26.4844 22.6562H27.4844V20.4365L25.8218 21.9073L26.4844 22.6562ZM25.5156 23.3438L26.0118 24.212L26.0195 24.2075L25.5156 23.3438ZM24.3438 23.9219L24.7151 24.8504L24.7251 24.8464L24.7349 24.8422L24.3438 23.9219ZM23.0469 24.3594L23.2947 25.3282L23.3052 25.3255L23.3157 25.3226L23.0469 24.3594ZM21.7188 24.6094H20.7188V25.7355L21.837 25.6024L21.7188 24.6094ZM21.7188 20.4531L21.4379 19.4934L20.7188 19.7039V20.4531H21.7188ZM28.4219 17.0938V16.0938H28.0845L27.8161 16.2981L28.4219 17.0938ZM30.4062 17.0938V40H32.4062V17.0938H30.4062ZM31.4062 39H26.4844V41H31.4062V39ZM27.4844 40V22.6562H25.4844V40H27.4844ZM25.8218 21.9073C25.6086 22.0959 25.3411 22.2879 25.0118 22.48L26.0195 24.2075C26.4402 23.9621 26.8185 23.6958 27.1469 23.4052L25.8218 21.9073ZM25.0195 22.4755C24.6914 22.663 24.3361 22.8386 23.9526 23.0015L24.7349 24.8422C25.1848 24.651 25.6107 24.4412 26.0118 24.212L25.0195 22.4755ZM23.9724 22.9934C23.5904 23.1462 23.1924 23.2805 22.7781 23.3962L23.3157 25.3226C23.7971 25.1882 24.2637 25.0309 24.7151 24.8504L23.9724 22.9934ZM22.799 23.3906C22.3917 23.4948 21.9923 23.5698 21.6005 23.6164L21.837 25.6024C22.3202 25.5448 22.8062 25.4531 23.2947 25.3282L22.799 23.3906ZM22.7188 24.6094V20.4531H20.7188V24.6094H22.7188ZM21.9996 21.4129C23.3389 21.0209 24.6065 20.5187 25.8007 19.9051L24.8868 18.1261C23.8102 18.6792 22.6611 19.1354 21.4379 19.4934L21.9996 21.4129ZM25.8007 19.9051C26.9829 19.2978 28.0595 18.6265 29.0276 17.8894L27.8161 16.2981C26.9509 16.9569 25.9755 17.5668 24.8868 18.1261L25.8007 19.9051ZM28.4219 18.0938H31.4062V16.0938H28.4219V18.0938Z" fill="black"/>
</mask>
<g mask="url(#mask0)">
<rect x="-6" y="9" width="43" height="10" fill="#C4C4C4"/>
</g>
<path d="M9.07812 43.3906C3.74479 43.3906 1.07812 39.6458 1.07812 32.1562C1.07812 28.2708 1.79688 25.3125 3.23438 23.2812C4.68229 21.2396 6.77604 20.2188 9.51562 20.2188C14.724 20.2188 17.3281 24.026 17.3281 31.6406C17.3281 35.4323 16.6146 38.3385 15.1875 40.3594C13.7708 42.3802 11.7344 43.3906 9.07812 43.3906ZM9.29688 23.9844C7.16146 23.9844 6.09375 26.6667 6.09375 32.0312C6.09375 37.0833 7.14062 39.6094 9.23438 39.6094C11.276 39.6094 12.2969 37.0052 12.2969 31.7969C12.2969 26.5885 11.2969 23.9844 9.29688 23.9844ZM31.4062 20.0938V43H26.4844V25.6562C26.2135 25.8958 25.8906 26.125 25.5156 26.3438C25.151 26.5521 24.7604 26.7448 24.3438 26.9219C23.9271 27.0885 23.4948 27.2344 23.0469 27.3594C22.599 27.474 22.1562 27.5573 21.7188 27.6094V23.4531C23 23.0781 24.2083 22.599 25.3438 22.0156C26.4792 21.4323 27.5052 20.7917 28.4219 20.0938H31.4062Z" fill="black"/>
</svg>
