<svg width="37" height="57" viewBox="0 0 37 57" fill="none" xmlns="http://www.w3.org/2000/svg">
<mask id="mask0" style="mask-type:alpha" maskUnits="userSpaceOnUse" x="0" y="16" width="36" height="26">
<path d="M3.23438 20.2812L2.41868 19.7028L2.4181 19.7036L3.23438 20.2812ZM15.1875 37.3594L14.3706 36.7825L14.3687 36.7853L15.1875 37.3594ZM9.07812 39.3906C6.67552 39.3906 5.00641 38.566 3.8927 37.002C2.73451 35.3755 2.07812 32.8126 2.07812 29.1562H0.078125C0.078125 32.9894 0.755075 36.0437 2.26355 38.1621C3.81651 40.3429 6.1474 41.3906 9.07812 41.3906V39.3906ZM2.07812 29.1562C2.07812 25.3698 2.78273 22.6505 4.05065 20.8589L2.4181 19.7036C0.811015 21.9745 0.078125 25.1719 0.078125 29.1562H2.07812ZM4.05007 20.8597C5.29069 19.1104 7.0644 18.2188 9.51562 18.2188V16.2188C6.48768 16.2188 4.07389 17.3688 2.41868 19.7028L4.05007 20.8597ZM9.51562 18.2188C11.8393 18.2188 13.4603 19.0462 14.5496 20.6388C15.6856 22.2996 16.3281 24.9162 16.3281 28.6406H18.3281C18.3281 24.7505 17.6686 21.6561 16.2004 19.5097C14.6855 17.2949 12.4003 16.2188 9.51562 16.2188V18.2188ZM16.3281 28.6406C16.3281 32.3287 15.6304 34.9986 14.3706 36.7825L16.0044 37.9362C17.5987 35.6785 18.3281 32.5359 18.3281 28.6406H16.3281ZM14.3687 36.7853C13.1554 38.5161 11.4376 39.3906 9.07812 39.3906V41.3906C12.0312 41.3906 14.3863 40.2443 16.0063 37.9334L14.3687 36.7853ZM9.29688 19.9844C8.53397 19.9844 7.83819 20.231 7.25349 20.7206C6.68673 21.1952 6.27144 21.8575 5.96543 22.6263C5.36021 24.1467 5.09375 26.312 5.09375 29.0312H7.09375C7.09375 26.3859 7.36114 24.5278 7.82363 23.3659C8.05148 22.7935 8.30351 22.45 8.53753 22.254C8.75361 22.073 8.99208 21.9844 9.29688 21.9844V19.9844ZM5.09375 29.0312C5.09375 31.5963 5.35516 33.6501 5.9551 35.0977C6.25911 35.8313 6.672 36.4633 7.23361 36.915C7.81117 37.3795 8.49257 37.6094 9.23438 37.6094V35.6094C8.9293 35.6094 8.69468 35.5235 8.48709 35.3565C8.26355 35.1767 8.02214 34.8614 7.80271 34.332C7.35578 33.2536 7.09375 31.5183 7.09375 29.0312H5.09375ZM9.23438 37.6094C9.97805 37.6094 10.6553 37.3648 11.222 36.8829C11.7701 36.4169 12.1692 35.7689 12.4623 35.0212C13.0422 33.5419 13.2969 31.4372 13.2969 28.7969H11.2969C11.2969 31.3649 11.0412 33.1665 10.6002 34.2913C10.3829 34.8456 10.144 35.1743 9.92642 35.3593C9.72753 35.5284 9.51153 35.6094 9.23438 35.6094V37.6094ZM13.2969 28.7969C13.2969 26.1575 13.0474 24.0557 12.4804 22.579C12.1941 21.8333 11.8036 21.1851 11.2649 20.7175C10.7066 20.2329 10.0359 19.9844 9.29688 19.9844V21.9844C9.55784 21.9844 9.76212 22.0614 9.95385 22.2278C10.1652 22.4113 10.3997 22.7396 10.6133 23.296C11.0463 24.4235 11.2969 26.2279 11.2969 28.7969H13.2969ZM25.1094 35.9062H24.1094V36.9062H25.1094V35.9062ZM34.6094 35.9062H35.6094V34.9062H34.6094V35.9062ZM34.6094 40V41H35.6094V40H34.6094ZM19.7031 40H18.7031V41H19.7031V40ZM20.2812 35.2344L21.2015 35.6257L21.2031 35.622L20.2812 35.2344ZM21.7344 32.7812L22.5109 33.4114L22.5152 33.4059L21.7344 32.7812ZM23.6406 30.8594L24.2668 31.6391L24.2682 31.638L23.6406 30.8594ZM25.625 29.3438L25.0438 28.53L25.0425 28.5309L25.625 29.3438ZM27.3438 28L26.6942 27.2396L26.6864 27.2464L27.3438 28ZM28.5938 26.7344L27.8147 26.1074L27.8129 26.1097L28.5938 26.7344ZM29.3594 25.4531L30.291 25.8167L30.2939 25.8091L29.3594 25.4531ZM20.7812 23.4531H19.7812V25.6483L21.4375 24.2076L20.7812 23.4531ZM20.7812 19.1094L20.238 18.2698L19.7812 18.5653V19.1094H20.7812ZM30.4219 17.6719L30.1023 18.6195L30.1155 18.6238L30.4219 17.6719ZM34.1406 20.9531L33.2147 21.3308L33.2177 21.3382L33.2208 21.3456L34.1406 20.9531ZM34.1562 26.3281L33.2285 25.9546L33.2245 25.9651L34.1562 26.3281ZM32.8906 28.5156L32.1133 27.8864L32.1073 27.894L32.8906 28.5156ZM31.0781 30.3281L31.697 31.1137L31.7043 31.1078L31.0781 30.3281ZM28.9375 31.9062L28.3695 31.0832L28.3595 31.0902L28.9375 31.9062ZM27.4844 32.9688L28.0844 33.7688L28.0872 33.7666L27.4844 32.9688ZM26.2656 34L26.951 34.7282L26.9566 34.7229L26.9621 34.7176L26.2656 34ZM25.1094 36.9062H34.6094V34.9062H25.1094V36.9062ZM33.6094 35.9062V40H35.6094V35.9062H33.6094ZM34.6094 39H19.7031V41H34.6094V39ZM20.7031 40V38.3125H18.7031V40H20.7031ZM20.7031 38.3125C20.7031 37.2794 20.8766 36.3897 21.2015 35.6257L19.361 34.843C18.9151 35.8916 18.7031 37.0539 18.7031 38.3125H20.7031ZM21.2031 35.622C21.5545 34.7862 21.9915 34.0514 22.5108 33.4114L20.9579 32.1511C20.3106 32.9486 19.7788 33.8492 19.3594 34.8468L21.2031 35.622ZM22.5152 33.4059C23.0555 32.7306 23.6396 32.1427 24.2668 31.6391L23.0145 30.0797C22.2666 30.6802 21.5799 31.3736 20.9535 32.1566L22.5152 33.4059ZM24.2682 31.638C24.9537 31.0854 25.6001 30.5919 26.2075 30.1566L25.0425 28.5309C24.3999 28.9914 23.7234 29.5083 23.0131 30.0808L24.2682 31.638ZM26.2062 30.1575C26.8828 29.6742 27.4822 29.2063 28.0011 28.7536L26.6864 27.2464C26.2262 27.6479 25.6797 28.0758 25.0438 28.53L26.2062 30.1575ZM27.9932 28.7604C28.5306 28.3013 28.994 27.8348 29.3746 27.3591L27.8129 26.1097C27.5268 26.4673 27.1569 26.8445 26.6943 27.2396L27.9932 28.7604ZM29.3728 27.3614C29.7684 26.8699 30.0807 26.3553 30.291 25.8167L28.4278 25.0896C28.3047 25.4051 28.1066 25.7447 27.8147 26.1074L29.3728 27.3614ZM30.2939 25.8091C30.5058 25.2528 30.6094 24.6681 30.6094 24.0625H28.6094C28.6094 24.4361 28.5463 24.7785 28.4249 25.0971L30.2939 25.8091ZM30.6094 24.0625C30.6094 22.9147 30.2793 21.8826 29.4674 21.1488L28.1263 22.6325C28.3978 22.8778 28.6094 23.2936 28.6094 24.0625H30.6094ZM29.4674 21.1488C28.666 20.4244 27.5487 20.1562 26.3125 20.1562V22.1562C27.3055 22.1562 27.8444 22.3777 28.1263 22.6325L29.4674 21.1488ZM26.3125 20.1562C24.0959 20.1562 22.0273 21.0439 20.125 22.6986L21.4375 24.2076C23.0561 22.7998 24.6749 22.1562 26.3125 22.1562V20.1562ZM21.7812 23.4531V19.1094H19.7812V23.4531H21.7812ZM21.3245 19.9489C23.1015 18.7991 25.1087 18.2188 27.375 18.2188V16.2188C24.7455 16.2188 22.3569 16.8988 20.238 18.2698L21.3245 19.9489ZM27.375 18.2188C28.4229 18.2188 29.3278 18.3583 30.1023 18.6195L30.7414 16.7243C29.7243 16.3813 28.5979 16.2188 27.375 16.2188V18.2188ZM30.1155 18.6238C30.909 18.8792 31.5487 19.2382 32.0567 19.687L33.3808 18.188C32.6388 17.5326 31.7472 17.0479 30.7282 16.72L30.1155 18.6238ZM32.0567 19.687C32.5633 20.1345 32.9484 20.678 33.2147 21.3308L35.0666 20.5754C34.687 19.6449 34.1242 18.8447 33.3808 18.188L32.0567 19.687ZM33.2208 21.3456C33.4943 21.9865 33.6406 22.7254 33.6406 23.5781H35.6406C35.6406 22.4934 35.4536 21.4822 35.0604 20.5607L33.2208 21.3456ZM33.6406 23.5781C33.6406 24.5055 33.4955 25.2918 33.2286 25.9547L35.0839 26.7016C35.4629 25.7603 35.6406 24.7132 35.6406 23.5781H33.6406ZM33.2245 25.9651C32.9487 26.6729 32.5784 27.312 32.1134 27.8864L33.6679 29.1448C34.2653 28.4068 34.7388 27.5875 35.088 26.6912L33.2245 25.9651ZM32.1073 27.894C31.6352 28.4889 31.0844 29.0406 30.452 29.5484L31.7043 31.1078C32.4468 30.5115 33.1044 29.8549 33.6739 29.1373L32.1073 27.894ZM30.4593 29.5426C29.7887 30.0709 29.0922 30.5845 28.3695 31.0832L29.5055 32.7293C30.262 32.2072 30.9925 31.6687 31.697 31.1136L30.4593 29.5426ZM28.3595 31.0902C27.8515 31.4501 27.3588 31.8103 26.8815 32.1709L28.0872 33.7666C28.5474 33.4189 29.0235 33.0708 29.5155 32.7223L28.3595 31.0902ZM26.8844 32.1688C26.3974 32.534 25.9581 32.9049 25.5691 33.2824L26.9621 34.7176C27.2815 34.4076 27.6547 34.091 28.0844 33.7687L26.8844 32.1688ZM25.5803 33.2718C25.1819 33.6467 24.8436 34.0361 24.5816 34.4422L26.2622 35.5265C26.4168 35.2868 26.641 35.0199 26.951 34.7282L25.5803 33.2718ZM24.5816 34.4422C24.3015 34.8764 24.1094 35.3701 24.1094 35.9062H26.1094C26.1094 35.8591 26.1256 35.7382 26.2622 35.5265L24.5816 34.4422Z" fill="black"/>
</mask>
<g mask="url(#mask0)">
<rect x="-6" y="11" width="43" height="10" fill="#C4C4C4"/>
</g>
<path d="M9.07812 43.3906C3.74479 43.3906 1.07812 39.6458 1.07812 32.1562C1.07812 28.2708 1.79688 25.3125 3.23438 23.2812C4.68229 21.2396 6.77604 20.2188 9.51562 20.2188C14.724 20.2188 17.3281 24.026 17.3281 31.6406C17.3281 35.4323 16.6146 38.3385 15.1875 40.3594C13.7708 42.3802 11.7344 43.3906 9.07812 43.3906ZM9.29688 23.9844C7.16146 23.9844 6.09375 26.6667 6.09375 32.0312C6.09375 37.0833 7.14062 39.6094 9.23438 39.6094C11.276 39.6094 12.2969 37.0052 12.2969 31.7969C12.2969 26.5885 11.2969 23.9844 9.29688 23.9844ZM25.1094 38.9062H34.6094V43H19.7031V41.3125C19.7031 40.1667 19.8958 39.1406 20.2812 38.2344C20.6667 37.3177 21.151 36.5 21.7344 35.7812C22.3177 35.0521 22.9531 34.4115 23.6406 33.8594C24.3385 33.2969 25 32.7917 25.625 32.3438C26.2812 31.875 26.8542 31.4271 27.3438 31C27.8438 30.5729 28.2604 30.151 28.5938 29.7344C28.9375 29.3073 29.1927 28.8802 29.3594 28.4531C29.526 28.0156 29.6094 27.5521 29.6094 27.0625C29.6094 26.1042 29.3385 25.3802 28.7969 24.8906C28.2552 24.401 27.4271 24.1562 26.3125 24.1562C24.3854 24.1562 22.5417 24.9219 20.7812 26.4531V22.1094C22.7292 20.849 24.9271 20.2188 27.375 20.2188C28.5104 20.2188 29.526 20.3698 30.4219 20.6719C31.3281 20.9635 32.0938 21.3854 32.7188 21.9375C33.3438 22.4896 33.8177 23.1615 34.1406 23.9531C34.474 24.7344 34.6406 25.6094 34.6406 26.5781C34.6406 27.6094 34.4792 28.526 34.1562 29.3281C33.8438 30.1302 33.4219 30.8594 32.8906 31.5156C32.3698 32.1719 31.7656 32.776 31.0781 33.3281C30.3906 33.8698 29.6771 34.3958 28.9375 34.9062C28.4375 35.2604 27.9531 35.6146 27.4844 35.9688C27.026 36.3125 26.6198 36.6562 26.2656 37C25.9115 37.3333 25.6302 37.6615 25.4219 37.9844C25.2135 38.3073 25.1094 38.6146 25.1094 38.9062Z" fill="black"/>
</svg>
