<svg width="37" height="57" viewBox="0 0 37 57" fill="none" xmlns="http://www.w3.org/2000/svg">
<mask id="mask0" style="mask-type:alpha" maskUnits="userSpaceOnUse" x="0" y="16" width="36" height="26">
<path d="M3.23438 20.2812L2.41868 19.7028L2.4181 19.7036L3.23438 20.2812ZM15.1875 37.3594L14.3706 36.7825L14.3687 36.7853L15.1875 37.3594ZM9.07812 39.3906C6.67552 39.3906 5.00641 38.566 3.8927 37.002C2.73451 35.3755 2.07812 32.8126 2.07812 29.1562H0.078125C0.078125 32.9894 0.755075 36.0437 2.26355 38.1621C3.81651 40.3429 6.1474 41.3906 9.07812 41.3906V39.3906ZM2.07812 29.1562C2.07812 25.3698 2.78273 22.6505 4.05065 20.8589L2.4181 19.7036C0.811015 21.9745 0.078125 25.1719 0.078125 29.1562H2.07812ZM4.05007 20.8597C5.29069 19.1104 7.0644 18.2188 9.51562 18.2188V16.2188C6.48768 16.2188 4.07389 17.3688 2.41868 19.7028L4.05007 20.8597ZM9.51562 18.2188C11.8393 18.2188 13.4603 19.0462 14.5496 20.6388C15.6856 22.2996 16.3281 24.9162 16.3281 28.6406H18.3281C18.3281 24.7505 17.6686 21.6561 16.2004 19.5097C14.6855 17.2949 12.4003 16.2188 9.51562 16.2188V18.2188ZM16.3281 28.6406C16.3281 32.3287 15.6304 34.9986 14.3706 36.7825L16.0044 37.9362C17.5987 35.6785 18.3281 32.5359 18.3281 28.6406H16.3281ZM14.3687 36.7853C13.1554 38.5161 11.4376 39.3906 9.07812 39.3906V41.3906C12.0312 41.3906 14.3863 40.2443 16.0063 37.9334L14.3687 36.7853ZM9.29688 19.9844C8.53397 19.9844 7.83819 20.231 7.25349 20.7206C6.68673 21.1952 6.27144 21.8575 5.96543 22.6263C5.36021 24.1467 5.09375 26.312 5.09375 29.0312H7.09375C7.09375 26.3859 7.36114 24.5278 7.82363 23.3659C8.05148 22.7935 8.30351 22.45 8.53753 22.254C8.75361 22.073 8.99208 21.9844 9.29688 21.9844V19.9844ZM5.09375 29.0312C5.09375 31.5963 5.35516 33.6501 5.9551 35.0977C6.25911 35.8313 6.672 36.4633 7.23361 36.915C7.81117 37.3795 8.49257 37.6094 9.23438 37.6094V35.6094C8.9293 35.6094 8.69468 35.5235 8.48709 35.3565C8.26355 35.1767 8.02214 34.8614 7.80271 34.332C7.35578 33.2536 7.09375 31.5183 7.09375 29.0312H5.09375ZM9.23438 37.6094C9.97805 37.6094 10.6553 37.3648 11.222 36.8829C11.7701 36.4169 12.1692 35.7689 12.4623 35.0212C13.0422 33.5419 13.2969 31.4372 13.2969 28.7969H11.2969C11.2969 31.3649 11.0412 33.1665 10.6002 34.2913C10.3829 34.8456 10.144 35.1743 9.92642 35.3593C9.72753 35.5284 9.51153 35.6094 9.23438 35.6094V37.6094ZM13.2969 28.7969C13.2969 26.1575 13.0474 24.0557 12.4804 22.579C12.1941 21.8333 11.8036 21.1851 11.2649 20.7175C10.7066 20.2329 10.0359 19.9844 9.29688 19.9844V21.9844C9.55784 21.9844 9.76212 22.0614 9.95385 22.2278C10.1652 22.4113 10.3997 22.7396 10.6133 23.296C11.0463 24.4235 11.2969 26.2279 11.2969 28.7969H13.2969ZM20.2344 39.2656H19.2344V39.8738L19.7744 40.1536L20.2344 39.2656ZM20.2344 34.9688L20.8235 34.1607L19.2344 33.002V34.9688H20.2344ZM28.4219 35.7969L27.8144 35.0025L27.8088 35.0069L28.4219 35.7969ZM28.1719 31.2188L27.641 32.0662L27.6455 32.069L28.1719 31.2188ZM22.5156 30.4062H21.5156V31.4062H22.5156V30.4062ZM22.5156 26.625V25.625H21.5156V26.625H22.5156ZM21.0781 22.4375H20.0781V24.3328L21.6426 23.263L21.0781 22.4375ZM21.0781 18.4062L20.6285 17.513L20.0781 17.79V18.4062H21.0781ZM31.9219 18.7656L31.2918 19.5421L31.2949 19.5446L31.9219 18.7656ZM29.3906 28.2812L29.1489 27.3109L28.3906 27.4998V28.2812H29.3906ZM29.3906 28.3594H28.3906V29.2422L29.2666 29.3517L29.3906 28.3594ZM33.1406 30.0938L32.418 30.785L32.4218 30.7889L33.1406 30.0938ZM21.2344 39.2656V34.9688H19.2344V39.2656H21.2344ZM19.6452 35.7768C21.3298 37.0051 23.2899 37.6094 25.4844 37.6094V35.6094C23.6788 35.6094 22.1389 35.1199 20.8235 34.1607L19.6452 35.7768ZM25.4844 37.6094C26.8746 37.6094 28.1006 37.312 29.035 36.5869L27.8088 35.0069C27.3473 35.365 26.6149 35.6094 25.4844 35.6094V37.6094ZM29.0293 36.5912C30.0087 35.8423 30.4844 34.7804 30.4844 33.5312H28.4844C28.4844 34.2196 28.2517 34.6682 27.8144 35.0025L29.0293 36.5912ZM30.4844 33.5312C30.4844 32.1728 29.8573 31.086 28.6982 30.3685L27.6455 32.069C28.2365 32.4349 28.4844 32.8897 28.4844 33.5312H30.4844ZM28.7028 30.3713C27.6192 29.6924 26.2162 29.4062 24.5938 29.4062V31.4062C26.0129 31.4062 26.9954 31.6617 27.641 32.0662L28.7028 30.3713ZM24.5938 29.4062H22.5156V31.4062H24.5938V29.4062ZM23.5156 30.4062V26.625H21.5156V30.4062H23.5156ZM22.5156 27.625H24.4375V25.625H22.5156V27.625ZM24.4375 27.625C25.9749 27.625 27.3026 27.3754 28.2721 26.7314C29.3136 26.0396 29.8125 24.9803 29.8125 23.7188H27.8125C27.8125 24.3947 27.5823 24.7886 27.1654 25.0655C26.6766 25.3902 25.8168 25.625 24.4375 25.625V27.625ZM29.8125 23.7188C29.8125 22.5925 29.4565 21.5864 28.6039 20.8924C27.7907 20.2305 26.6828 19.9844 25.4531 19.9844V21.9844C26.463 21.9844 27.0348 22.194 27.3414 22.4435C27.6086 22.661 27.8125 23.0221 27.8125 23.7188H29.8125ZM25.4531 19.9844C23.7237 19.9844 22.0719 20.5465 20.5137 21.612L21.6426 23.263C22.9177 22.391 24.1826 21.9844 25.4531 21.9844V19.9844ZM22.0781 22.4375V18.4062H20.0781V22.4375H22.0781ZM21.5277 19.2995C22.9371 18.5901 24.6112 18.2188 26.5781 18.2188V16.2188C24.3575 16.2188 22.3649 16.6391 20.6285 17.513L21.5277 19.2995ZM26.5781 18.2188C28.7308 18.2188 30.2586 18.7037 31.2918 19.5421L32.552 17.9891C31.0435 16.765 29.0088 16.2188 26.5781 16.2188V18.2188ZM31.2949 19.5446C32.3401 20.3859 32.8438 21.4379 32.8438 22.7812H34.8438C34.8438 20.8329 34.0662 19.2078 32.5489 17.9866L31.2949 19.5446ZM32.8438 22.7812C32.8438 24.0724 32.5193 25.0232 31.9533 25.7223C31.3836 26.4259 30.4853 26.978 29.1489 27.3109L29.6324 29.2516C31.2647 28.8449 32.593 28.1105 33.5077 26.9808C34.426 25.8466 34.8438 24.4172 34.8438 22.7812H32.8438ZM28.3906 28.2812V28.3594H30.3906V28.2812H28.3906ZM29.2666 29.3517C30.6699 29.5271 31.6909 30.0248 32.418 30.785L33.8633 29.4025C32.757 28.246 31.2781 27.5875 29.5147 27.3671L29.2666 29.3517ZM32.4218 30.7889C33.1482 31.5401 33.5156 32.4532 33.5156 33.5938H35.5156C35.5156 31.9635 34.9663 30.5432 33.8595 29.3986L32.4218 30.7889ZM33.5156 33.5938C33.5156 35.4073 32.8704 36.7658 31.596 37.7801L32.8415 39.3449C34.6296 37.9217 35.5156 35.9677 35.5156 33.5938H33.5156ZM31.596 37.7801C30.2982 38.813 28.4314 39.3906 25.875 39.3906V41.3906C28.7145 41.3906 31.0768 40.7495 32.8415 39.3449L31.596 37.7801ZM25.875 39.3906C23.6598 39.3906 21.9532 39.0298 20.6943 38.3777L19.7744 40.1536C21.4113 41.0015 23.4652 41.3906 25.875 41.3906V39.3906Z" fill="black"/>
</mask>
<g mask="url(#mask0)">
<rect x="-6" y="9" width="43" height="10" fill="#C4C4C4"/>
</g>
<path d="M9.07812 43.3906C3.74479 43.3906 1.07812 39.6458 1.07812 32.1562C1.07812 28.2708 1.79688 25.3125 3.23438 23.2812C4.68229 21.2396 6.77604 20.2188 9.51562 20.2188C14.724 20.2188 17.3281 24.026 17.3281 31.6406C17.3281 35.4323 16.6146 38.3385 15.1875 40.3594C13.7708 42.3802 11.7344 43.3906 9.07812 43.3906ZM9.29688 23.9844C7.16146 23.9844 6.09375 26.6667 6.09375 32.0312C6.09375 37.0833 7.14062 39.6094 9.23438 39.6094C11.276 39.6094 12.2969 37.0052 12.2969 31.7969C12.2969 26.5885 11.2969 23.9844 9.29688 23.9844ZM20.2344 42.2656V37.9688C21.7344 39.0625 23.4844 39.6094 25.4844 39.6094C26.7448 39.6094 27.724 39.3385 28.4219 38.7969C29.1302 38.2552 29.4844 37.5 29.4844 36.5312C29.4844 35.5312 29.0469 34.7604 28.1719 34.2188C27.3073 33.6771 26.1146 33.4062 24.5938 33.4062H22.5156V29.625H24.4375C27.3542 29.625 28.8125 28.6562 28.8125 26.7188C28.8125 24.8958 27.6927 23.9844 25.4531 23.9844C23.9531 23.9844 22.4948 24.4688 21.0781 25.4375V21.4062C22.651 20.6146 24.4844 20.2188 26.5781 20.2188C28.8698 20.2188 30.651 20.7344 31.9219 21.7656C33.2031 22.7969 33.8438 24.1354 33.8438 25.7812C33.8438 28.7083 32.3594 30.5417 29.3906 31.2812V31.3594C30.974 31.5573 32.224 32.1354 33.1406 33.0938C34.0573 34.0417 34.5156 35.2083 34.5156 36.5938C34.5156 38.6875 33.75 40.3438 32.2188 41.5625C30.6875 42.7812 28.5729 43.3906 25.875 43.3906C23.5625 43.3906 21.6823 43.0156 20.2344 42.2656Z" fill="black"/>
</svg>
