<svg width="37" height="57" viewBox="0 0 37 57" fill="none" xmlns="http://www.w3.org/2000/svg">
<mask id="mask0" style="mask-type:alpha" maskUnits="userSpaceOnUse" x="0" y="16" width="37" height="26">
<path d="M3.23438 20.2812L2.41868 19.7028L2.4181 19.7036L3.23438 20.2812ZM15.1875 37.3594L14.3706 36.7825L14.3687 36.7853L15.1875 37.3594ZM9.07812 39.3906C6.67552 39.3906 5.00641 38.566 3.8927 37.002C2.73451 35.3755 2.07812 32.8126 2.07812 29.1562H0.078125C0.078125 32.9894 0.755075 36.0437 2.26355 38.1621C3.81651 40.3429 6.1474 41.3906 9.07812 41.3906V39.3906ZM2.07812 29.1562C2.07812 25.3698 2.78273 22.6505 4.05065 20.8589L2.4181 19.7036C0.811015 21.9745 0.078125 25.1719 0.078125 29.1562H2.07812ZM4.05007 20.8597C5.29069 19.1104 7.0644 18.2188 9.51562 18.2188V16.2188C6.48768 16.2188 4.07389 17.3688 2.41868 19.7028L4.05007 20.8597ZM9.51562 18.2188C11.8393 18.2188 13.4603 19.0462 14.5496 20.6388C15.6856 22.2996 16.3281 24.9162 16.3281 28.6406H18.3281C18.3281 24.7505 17.6686 21.6561 16.2004 19.5097C14.6855 17.2949 12.4003 16.2188 9.51562 16.2188V18.2188ZM16.3281 28.6406C16.3281 32.3287 15.6304 34.9986 14.3706 36.7825L16.0044 37.9362C17.5987 35.6785 18.3281 32.5359 18.3281 28.6406H16.3281ZM14.3687 36.7853C13.1554 38.5161 11.4376 39.3906 9.07812 39.3906V41.3906C12.0312 41.3906 14.3863 40.2443 16.0063 37.9334L14.3687 36.7853ZM9.29688 19.9844C8.53396 19.9844 7.83819 20.231 7.25349 20.7206C6.68673 21.1952 6.27144 21.8575 5.96543 22.6263C5.36021 24.1467 5.09375 26.312 5.09375 29.0312H7.09375C7.09375 26.3859 7.36114 24.5278 7.82363 23.3659C8.05148 22.7935 8.30351 22.45 8.53753 22.254C8.75361 22.073 8.99208 21.9844 9.29688 21.9844V19.9844ZM5.09375 29.0312C5.09375 31.5963 5.35516 33.6501 5.9551 35.0977C6.25911 35.8313 6.672 36.4633 7.23361 36.915C7.81117 37.3795 8.49257 37.6094 9.23438 37.6094V35.6094C8.9293 35.6094 8.69468 35.5235 8.48709 35.3565C8.26355 35.1767 8.02214 34.8614 7.80271 34.332C7.35578 33.2536 7.09375 31.5183 7.09375 29.0312H5.09375ZM9.23438 37.6094C9.97805 37.6094 10.6553 37.3648 11.222 36.8829C11.7701 36.4169 12.1692 35.7689 12.4623 35.0212C13.0422 33.5419 13.2969 31.4372 13.2969 28.7969H11.2969C11.2969 31.3649 11.0412 33.1665 10.6002 34.2913C10.3829 34.8456 10.144 35.1743 9.92642 35.3593C9.72753 35.5284 9.51153 35.6094 9.23438 35.6094V37.6094ZM13.2969 28.7969C13.2969 26.1575 13.0474 24.0557 12.4804 22.579C12.1941 21.8333 11.8036 21.1851 11.2649 20.7175C10.7066 20.2329 10.0359 19.9844 9.29688 19.9844V21.9844C9.55784 21.9844 9.76212 22.0614 9.95385 22.2278C10.1652 22.4113 10.3997 22.7396 10.6133 23.296C11.0463 24.4235 11.2969 26.2279 11.2969 28.7969H13.2969ZM33.2812 17.5938H34.2812V16.5938H33.2812V17.5938ZM33.2812 31.7188H32.2812V32.7188H33.2812V31.7188ZM35.9688 31.7188H36.9688V30.7188H35.9688V31.7188ZM35.9688 35.4062V36.4062H36.9688V35.4062H35.9688ZM33.2812 35.4062V34.4062H32.2812V35.4062H33.2812ZM33.2812 40V41H34.2812V40H33.2812ZM28.7812 40H27.7812V41H28.7812V40ZM28.7812 35.4062H29.7812V34.4062H28.7812V35.4062ZM19.0156 35.4062H18.0156V36.4062H19.0156V35.4062ZM19.0156 31.5469L18.2695 30.881L18.0156 31.1655V31.5469H19.0156ZM21.7031 28.375L22.4805 29.004L22.4833 29.0006L21.7031 28.375ZM26.7969 21.1406L25.9413 20.623L25.94 20.6251L26.7969 21.1406ZM28.7031 17.5938V16.5938H28.0641L27.7957 17.1736L28.7031 17.5938ZM23.4375 31.7188L22.6609 31.0887L21.3385 32.7188H23.4375V31.7188ZM28.7812 31.7188V32.7188H29.7812V31.7188H28.7812ZM28.7812 23.8906H29.7812L27.9008 23.4165L28.7812 23.8906ZM27.5938 25.9531L28.4432 26.4808L28.4467 26.4751L27.5938 25.9531ZM26.25 28L27.0681 28.5752L27.0722 28.5692L26.25 28ZM24.8281 29.9531L25.6218 30.5616L25.6266 30.5552L24.8281 29.9531ZM32.2812 17.5938V31.7188H34.2812V17.5938H32.2812ZM33.2812 32.7188H35.9688V30.7188H33.2812V32.7188ZM34.9688 31.7188V35.4062H36.9688V31.7188H34.9688ZM35.9688 34.4062H33.2812V36.4062H35.9688V34.4062ZM32.2812 35.4062V40H34.2812V35.4062H32.2812ZM33.2812 39H28.7812V41H33.2812V39ZM29.7812 40V35.4062H27.7812V40H29.7812ZM28.7812 34.4062H19.0156V36.4062H28.7812V34.4062ZM20.0156 35.4062V31.5469H18.0156V35.4062H20.0156ZM19.7617 32.2127C20.6383 31.2305 21.5446 30.1607 22.4805 29.004L20.9257 27.746C20.0075 28.8809 19.1221 29.9258 18.2695 30.881L19.7617 32.2127ZM22.4833 29.0006C23.4228 27.8289 24.3304 26.6257 25.2062 25.3911L23.575 24.2339C22.7217 25.4368 21.8377 26.6086 20.9229 27.7494L22.4833 29.0006ZM25.2062 25.3911C26.0848 24.1527 26.9007 22.9077 27.6537 21.6562L25.94 20.6251C25.2139 21.8318 24.4257 23.0348 23.575 24.2339L25.2062 25.3911ZM27.6525 21.6583C28.4184 20.3923 29.072 19.1773 29.6106 18.0139L27.7957 17.1736C27.2926 18.2602 26.6753 19.4098 25.9413 20.623L27.6525 21.6583ZM28.7031 18.5938H33.2812V16.5938H28.7031V18.5938ZM23.4375 32.7188H28.7812V30.7188H23.4375V32.7188ZM29.7812 31.7188V23.8906H27.7812V31.7188H29.7812ZM27.9008 23.4165C27.5455 24.0764 27.1589 24.748 26.7408 25.4312L28.4467 26.4751C28.8828 25.7625 29.2879 25.059 29.6617 24.3647L27.9008 23.4165ZM26.7443 25.4254C26.3261 26.0986 25.8873 26.7671 25.4278 27.4308L27.0722 28.5692C27.5502 27.8787 28.0072 27.1826 28.4432 26.4808L26.7443 25.4254ZM25.432 27.4248C24.9695 28.0826 24.502 28.7247 24.0297 29.351L25.6266 30.5552C26.1126 29.9107 26.593 29.2507 27.068 28.5752L25.432 27.4248ZM24.0345 29.3447C23.5603 29.9632 23.1025 30.5445 22.6609 31.0887L24.2141 32.3488C24.6683 31.7889 25.1376 31.1931 25.6217 30.5616L24.0345 29.3447Z" fill="black"/>
</mask>
<g mask="url(#mask0)">
<rect x="-6" y="9" width="43" height="10" fill="#C4C4C4"/>
</g>
<path d="M9.07812 43.3906C3.74479 43.3906 1.07812 39.6458 1.07812 32.1562C1.07812 28.2708 1.79688 25.3125 3.23438 23.2812C4.68229 21.2396 6.77604 20.2188 9.51562 20.2188C14.724 20.2188 17.3281 24.026 17.3281 31.6406C17.3281 35.4323 16.6146 38.3385 15.1875 40.3594C13.7708 42.3802 11.7344 43.3906 9.07812 43.3906ZM9.29688 23.9844C7.16146 23.9844 6.09375 26.6667 6.09375 32.0312C6.09375 37.0833 7.14062 39.6094 9.23438 39.6094C11.276 39.6094 12.2969 37.0052 12.2969 31.7969C12.2969 26.5885 11.2969 23.9844 9.29688 23.9844ZM33.2812 20.5938V34.7188H35.9688V38.4062H33.2812V43H28.7812V38.4062H19.0156V34.5469C19.8802 33.5781 20.776 32.5208 21.7031 31.375C22.6302 30.2188 23.526 29.0312 24.3906 27.8125C25.2552 26.5938 26.0573 25.3698 26.7969 24.1406C27.5469 22.901 28.1823 21.7188 28.7031 20.5938H33.2812ZM23.4375 34.7188H28.7812V26.8906C28.4167 27.5677 28.0208 28.2552 27.5938 28.9531C27.1667 29.6406 26.7188 30.3229 26.25 31C25.7812 31.6667 25.3073 32.3177 24.8281 32.9531C24.349 33.5781 23.8854 34.1667 23.4375 34.7188Z" fill="black"/>
</svg>
