<svg width="25" height="24" viewBox="0 0 25 24" fill="none" xmlns="http://www.w3.org/2000/svg">
<path d="M12.5 0.000642806C9.21985 -0.0328495 6.06066 1.24365 3.71674 3.5496C1.37283 5.85556 0.0359775 9.00227 0 12.2982C0.0126391 14.9029 0.846526 17.4366 2.38189 19.5353C3.91725 21.634 6.07508 23.1898 8.54545 23.9791C9.17045 24.0933 9.39773 23.7165 9.39773 23.3854V21.2958C5.92045 22.038 5.18182 19.6516 5.18182 19.6516C4.95034 18.9024 4.45822 18.262 3.79545 17.8475C2.65909 17.0939 3.88636 17.1053 3.88636 17.1053C4.27915 17.1581 4.65495 17.2995 4.98558 17.519C5.31621 17.7385 5.59309 18.0304 5.79545 18.3727C6.1481 18.9872 6.72674 19.438 7.40683 19.628C8.08692 19.8181 8.81408 19.7322 9.43182 19.389C9.49535 18.7637 9.77715 18.1812 10.2273 17.7447C7.45455 17.4364 4.54545 16.386 4.54545 11.6702C4.52066 10.4401 4.973 9.24848 5.80682 8.34745C5.42708 7.29133 5.47192 6.12808 5.93182 5.10464C5.93182 5.10464 6.98864 4.77351 9.34091 6.36066C11.3885 5.81239 13.5433 5.81239 15.5909 6.36066C17.9773 4.77351 19 5.10464 19 5.10464C19.4599 6.12808 19.5047 7.29133 19.125 8.34745C19.9782 9.23196 20.4551 10.4155 20.4545 11.6473C20.4545 16.3745 17.5227 17.4136 14.7727 17.7219C15.0738 18.0157 15.3064 18.3728 15.4538 18.7677C15.6012 19.1625 15.6596 19.5853 15.625 20.0056V23.374C15.625 23.7736 15.8523 24.0933 16.4773 23.9677C18.9406 23.1735 21.0912 21.6173 22.6218 19.5216C24.1524 17.4258 24.9848 14.8977 25 12.2982C24.964 9.00227 23.6272 5.85556 21.2833 3.5496C18.9393 1.24365 15.7802 -0.0328495 12.5 0.000642806" fill="#6F6F6F"/>
</svg>
