<svg width="112" height="191" viewBox="0 0 112 191" fill="none" xmlns="http://www.w3.org/2000/svg">
<rect width="112" height="191" rx="2" fill="white" fill-opacity="0.8"/>
<path d="M19.959 21H14.1211V11.1973H16.3291V19.209H19.959V21ZM27.3623 18.1152H22.7959C22.8688 19.1315 23.5091 19.6396 24.7168 19.6396C25.487 19.6396 26.1637 19.4574 26.7471 19.0928V20.6514C26.0999 20.9977 25.2591 21.1709 24.2246 21.1709C23.0944 21.1709 22.2171 20.8587 21.5928 20.2344C20.9684 19.6055 20.6562 18.7305 20.6562 17.6094C20.6562 16.4473 20.9935 15.5267 21.668 14.8477C22.3424 14.1686 23.1719 13.8291 24.1562 13.8291C25.1771 13.8291 25.9655 14.1322 26.5215 14.7383C27.082 15.3444 27.3623 16.167 27.3623 17.2061V18.1152ZM25.3594 16.7891C25.3594 15.7865 24.9538 15.2852 24.1426 15.2852C23.7962 15.2852 23.4954 15.4287 23.2402 15.7158C22.9896 16.0029 22.8369 16.3607 22.7822 16.7891H25.3594ZM35.5107 20.2002C35.5107 21.499 35.1348 22.5039 34.3828 23.2148C33.6309 23.9303 32.5417 24.2881 31.1152 24.2881C30.1719 24.2881 29.4245 24.1536 28.873 23.8848V22.0664C29.5931 22.4857 30.32 22.6953 31.0537 22.6953C31.7829 22.6953 32.348 22.5016 32.749 22.1143C33.1501 21.7314 33.3506 21.2096 33.3506 20.5488V19.9951H33.3232C32.8311 20.779 32.1042 21.1709 31.1426 21.1709C30.2493 21.1709 29.5407 20.8564 29.0166 20.2275C28.4925 19.5986 28.2305 18.7555 28.2305 17.6982C28.2305 16.5133 28.5221 15.5723 29.1055 14.875C29.6888 14.1777 30.4567 13.8291 31.4092 13.8291C32.2614 13.8291 32.8994 14.1572 33.3232 14.8135H33.3506V14H35.5107V20.2002ZM33.3779 17.6367V17.083C33.3779 16.641 33.2458 16.265 32.9814 15.9551C32.7217 15.6406 32.3822 15.4834 31.9629 15.4834C31.4844 15.4834 31.1084 15.6702 30.835 16.0439C30.5615 16.4176 30.4248 16.944 30.4248 17.623C30.4248 18.2064 30.5547 18.6689 30.8145 19.0107C31.0742 19.348 31.4297 19.5166 31.8809 19.5166C32.3275 19.5166 32.6875 19.3457 32.9609 19.0039C33.2389 18.6576 33.3779 18.2018 33.3779 17.6367ZM43.6045 18.1152H39.0381C39.111 19.1315 39.7513 19.6396 40.959 19.6396C41.7292 19.6396 42.4059 19.4574 42.9893 19.0928V20.6514C42.3421 20.9977 41.5013 21.1709 40.4668 21.1709C39.3366 21.1709 38.4593 20.8587 37.835 20.2344C37.2106 19.6055 36.8984 18.7305 36.8984 17.6094C36.8984 16.4473 37.2357 15.5267 37.9102 14.8477C38.5846 14.1686 39.4141 13.8291 40.3984 13.8291C41.4193 13.8291 42.2077 14.1322 42.7637 14.7383C43.3242 15.3444 43.6045 16.167 43.6045 17.2061V18.1152ZM41.6016 16.7891C41.6016 15.7865 41.196 15.2852 40.3848 15.2852C40.0384 15.2852 39.7376 15.4287 39.4824 15.7158C39.2318 16.0029 39.0791 16.3607 39.0244 16.7891H41.6016ZM51.6504 21H49.4971V17.1104C49.4971 16.0257 49.1097 15.4834 48.335 15.4834C47.9613 15.4834 47.6536 15.627 47.4121 15.9141C47.1706 16.2012 47.0498 16.5658 47.0498 17.0078V21H44.8896V14H47.0498V15.1074H47.0771C47.5921 14.2552 48.3418 13.8291 49.3262 13.8291C50.8757 13.8291 51.6504 14.7907 51.6504 16.7139V21ZM60.2158 21H58.0557V20.0361H58.0283C57.5361 20.7926 56.8138 21.1709 55.8613 21.1709C54.9863 21.1709 54.2822 20.8633 53.749 20.248C53.2158 19.6283 52.9492 18.7646 52.9492 17.6572C52.9492 16.4997 53.2432 15.5723 53.8311 14.875C54.4189 14.1777 55.1891 13.8291 56.1416 13.8291C57.0439 13.8291 57.6729 14.1527 58.0283 14.7998H58.0557V10.6367H60.2158V21ZM58.0967 17.5957V17.0693C58.0967 16.6136 57.9645 16.2354 57.7002 15.9346C57.4359 15.6338 57.0918 15.4834 56.668 15.4834C56.1895 15.4834 55.8158 15.6725 55.5469 16.0508C55.278 16.4245 55.1436 16.9395 55.1436 17.5957C55.1436 18.2109 55.2734 18.6849 55.5332 19.0176C55.793 19.3503 56.153 19.5166 56.6133 19.5166C57.0508 19.5166 57.4062 19.3411 57.6797 18.9902C57.9577 18.6393 58.0967 18.1745 58.0967 17.5957Z" fill="#1C1C1C"/>
<path d="M66.5449 21.751H65.4922C64.3607 20.4834 63.7949 18.9204 63.7949 17.062C63.7949 15.1965 64.3607 13.6084 65.4922 12.2979H66.5503C65.4403 13.6585 64.8853 15.243 64.8853 17.0513C64.8853 18.8452 65.4385 20.4118 66.5449 21.751ZM71.0889 19.0977C70.8024 19.7816 70.3333 20.1235 69.6816 20.1235C69.234 20.1235 68.9189 19.9696 68.7363 19.6616H68.7148V22.374H67.4634V14.5H68.7095V17.771C68.7095 18.1577 68.8115 18.4746 69.0156 18.7217C69.2197 18.9652 69.4901 19.0869 69.8267 19.0869C70.1919 19.0869 70.4801 18.9437 70.6914 18.6572C70.9027 18.3708 71.0083 17.9984 71.0083 17.54V14.5H72.2651L72.2598 18.1309C72.2598 18.7253 72.4513 19.0225 72.8345 19.0225C72.9312 19.0225 73.0153 19.0099 73.0869 18.9849V19.9678C72.8184 20.0286 72.5767 20.0591 72.3618 20.0591C72.0145 20.0591 71.7424 19.9821 71.5454 19.8281C71.3521 19.6706 71.2106 19.4271 71.1211 19.0977H71.0889ZM81.3101 20H80.1016V19.1406H80.0801C79.7005 19.7995 79.1437 20.1289 78.4097 20.1289C77.869 20.1289 77.4447 19.9821 77.1367 19.6885C76.8324 19.3949 76.6802 19.0063 76.6802 18.5229C76.6802 17.4845 77.2782 16.8794 78.4741 16.7075L80.1069 16.4766C80.1069 15.6924 79.7345 15.3003 78.9897 15.3003C78.3345 15.3003 77.7437 15.5259 77.2173 15.9771V14.8867C77.7974 14.543 78.467 14.3711 79.2261 14.3711C80.6154 14.3711 81.3101 15.055 81.3101 16.4229V20ZM80.1069 17.2983L78.9521 17.4595C78.5941 17.506 78.3237 17.5938 78.1411 17.7227C77.9621 17.848 77.8726 18.07 77.8726 18.3887C77.8726 18.6214 77.9549 18.813 78.1196 18.9634C78.2879 19.1102 78.5117 19.1836 78.791 19.1836C79.1706 19.1836 79.4839 19.0511 79.731 18.7861C79.9816 18.5176 80.1069 18.181 80.1069 17.7764V17.2983ZM85.7358 19.9409C85.4924 20.0627 85.1719 20.1235 84.7744 20.1235C83.7074 20.1235 83.1738 19.6115 83.1738 18.5874V15.4775H82.2554V14.5H83.1738V13.2271L84.4199 12.8726V14.5H85.7358V15.4775H84.4199V18.2275C84.4199 18.5534 84.479 18.7861 84.5972 18.9258C84.7153 19.0654 84.9123 19.1353 85.188 19.1353C85.3993 19.1353 85.5819 19.0744 85.7358 18.9526V19.9409ZM95.0332 20H93.7871V17.0029C93.7871 16.4264 93.7048 16.0093 93.54 15.7515C93.3789 15.4937 93.105 15.3647 92.7183 15.3647C92.3924 15.3647 92.1149 15.5277 91.8857 15.8535C91.6602 16.1794 91.5474 16.5697 91.5474 17.0244V20H90.2959V16.9009C90.2959 15.8768 89.9342 15.3647 89.2109 15.3647C88.8743 15.3647 88.5968 15.5187 88.3784 15.8267C88.1636 16.1346 88.0562 16.5339 88.0562 17.0244V20H86.8101V14.5H88.0562V15.3701H88.0776C88.4751 14.7041 89.0534 14.3711 89.8125 14.3711C90.1921 14.3711 90.5233 14.4767 90.8062 14.688C91.0926 14.8957 91.2878 15.1696 91.3916 15.5098C91.7998 14.7507 92.4085 14.3711 93.2178 14.3711C94.4281 14.3711 95.0332 15.1177 95.0332 16.6108V20ZM96.9077 21.751H95.855C96.965 20.4118 97.52 18.8452 97.52 17.0513C97.52 15.243 96.9632 13.6585 95.8496 12.2979H96.9131C98.0482 13.6084 98.6157 15.1965 98.6157 17.062C98.6157 18.9204 98.0464 20.4834 96.9077 21.751Z" fill="#1C1C1C"/>
<path d="M48.9883 50.334C48.9883 50.7441 48.9219 51.1211 48.7891 51.4648C48.6562 51.8086 48.4727 52.1055 48.2383 52.3555C48.0039 52.6055 47.7246 52.8008 47.4004 52.9414C47.0762 53.0781 46.7246 53.1465 46.3457 53.1465C45.9238 53.1465 45.5449 53.0586 45.209 52.8828C44.877 52.707 44.5938 52.4551 44.3594 52.127C44.1289 51.7949 43.9531 51.3906 43.832 50.9141C43.7109 50.4375 43.6504 49.9004 43.6504 49.3027C43.6504 48.5723 43.7305 47.9102 43.8906 47.3164C44.0547 46.7188 44.2852 46.209 44.582 45.7871C44.8828 45.3613 45.2441 45.0332 45.666 44.8027C46.0879 44.5723 46.5586 44.457 47.0781 44.457C47.6562 44.457 48.1211 44.5371 48.4727 44.6973V45.6055C48.0391 45.3828 47.582 45.2715 47.1016 45.2715C46.7266 45.2715 46.3887 45.3555 46.0879 45.5234C45.7871 45.6914 45.5293 45.9297 45.3145 46.2383C45.0996 46.543 44.9336 46.9121 44.8164 47.3457C44.7031 47.7793 44.6465 48.2617 44.6465 48.793H44.6699C45.0566 48.0938 45.6953 47.7441 46.5859 47.7441C46.9531 47.7441 47.2832 47.8066 47.5762 47.9316C47.873 48.0566 48.125 48.2344 48.332 48.4648C48.543 48.6914 48.7051 48.9629 48.8184 49.2793C48.9316 49.5957 48.9883 49.9473 48.9883 50.334ZM48.0039 50.457C48.0039 50.1641 47.9668 49.9004 47.8926 49.666C47.8184 49.4316 47.7109 49.2324 47.5703 49.0684C47.4336 48.9043 47.2637 48.7793 47.0605 48.6934C46.8574 48.6035 46.627 48.5586 46.3691 48.5586C46.1309 48.5586 45.9102 48.6035 45.707 48.6934C45.5039 48.7832 45.3281 48.9062 45.1797 49.0625C45.0312 49.2148 44.9141 49.3945 44.8281 49.6016C44.7461 49.8047 44.7051 50.0215 44.7051 50.252C44.7051 50.541 44.7461 50.8125 44.8281 51.0664C44.9102 51.3164 45.0254 51.5352 45.1738 51.7227C45.3223 51.9102 45.498 52.0586 45.7012 52.168C45.9082 52.2734 46.1367 52.3262 46.3867 52.3262C46.6289 52.3262 46.8496 52.2812 47.0488 52.1914C47.248 52.0977 47.418 51.9688 47.5586 51.8047C47.6992 51.6406 47.8086 51.4453 47.8867 51.2188C47.9648 50.9883 48.0039 50.7344 48.0039 50.457ZM55.4453 48.7637C55.4453 49.4668 55.3809 50.0898 55.252 50.6328C55.127 51.1758 54.9434 51.6348 54.7012 52.0098C54.4629 52.3809 54.168 52.6641 53.8164 52.8594C53.4688 53.0508 53.0723 53.1465 52.627 53.1465C52.2051 53.1465 51.8281 53.0547 51.4961 52.8711C51.168 52.6836 50.8906 52.4121 50.6641 52.0566C50.4375 51.7012 50.2656 51.2656 50.1484 50.75C50.0312 50.2305 49.9727 49.6367 49.9727 48.9688C49.9727 48.2344 50.0332 47.5859 50.1543 47.0234C50.2793 46.4609 50.4609 45.9902 50.6992 45.6113C50.9375 45.2285 51.2324 44.9414 51.584 44.75C51.9395 44.5547 52.3457 44.457 52.8027 44.457C54.5645 44.457 55.4453 45.8926 55.4453 48.7637ZM54.4609 48.8574C54.4609 46.4668 53.8926 45.2715 52.7559 45.2715C51.5566 45.2715 50.957 46.4883 50.957 48.9219C50.957 51.1914 51.5449 52.3262 52.7207 52.3262C53.8809 52.3262 54.4609 51.1699 54.4609 48.8574ZM61.9141 48.7637C61.9141 49.4668 61.8496 50.0898 61.7207 50.6328C61.5957 51.1758 61.4121 51.6348 61.1699 52.0098C60.9316 52.3809 60.6367 52.6641 60.2852 52.8594C59.9375 53.0508 59.541 53.1465 59.0957 53.1465C58.6738 53.1465 58.2969 53.0547 57.9648 52.8711C57.6367 52.6836 57.3594 52.4121 57.1328 52.0566C56.9062 51.7012 56.7344 51.2656 56.6172 50.75C56.5 50.2305 56.4414 49.6367 56.4414 48.9688C56.4414 48.2344 56.502 47.5859 56.623 47.0234C56.748 46.4609 56.9297 45.9902 57.168 45.6113C57.4062 45.2285 57.7012 44.9414 58.0527 44.75C58.4082 44.5547 58.8145 44.457 59.2715 44.457C61.0332 44.457 61.9141 45.8926 61.9141 48.7637ZM60.9297 48.8574C60.9297 46.4668 60.3613 45.2715 59.2246 45.2715C58.0254 45.2715 57.4258 46.4883 57.4258 48.9219C57.4258 51.1914 58.0137 52.3262 59.1895 52.3262C60.3496 52.3262 60.9297 51.1699 60.9297 48.8574Z" fill="#212020"/>
<path d="M48.6777 71.4336C48.6777 71.8438 48.6074 72.2148 48.4668 72.5469C48.3262 72.8789 48.125 73.1641 47.8633 73.4023C47.6055 73.6406 47.293 73.8242 46.9258 73.9531C46.5586 74.082 46.1504 74.1465 45.7012 74.1465C44.9199 74.1465 44.3398 74.0293 43.9609 73.7949V72.7754C44.5312 73.1426 45.1152 73.3262 45.7129 73.3262C46.0176 73.3262 46.291 73.2812 46.5332 73.1914C46.7793 73.1016 46.9883 72.9766 47.1602 72.8164C47.332 72.6562 47.4629 72.4629 47.5527 72.2363C47.6465 72.0098 47.6934 71.7617 47.6934 71.4922C47.6934 70.9453 47.5098 70.5176 47.1426 70.209C46.7754 69.8965 46.2422 69.7402 45.543 69.7402C45.4297 69.7402 45.3105 69.7422 45.1855 69.7461C45.0605 69.75 44.9355 69.7559 44.8105 69.7637C44.6855 69.7676 44.5625 69.7734 44.4414 69.7812C44.3242 69.7891 44.2168 69.7988 44.1191 69.8105L44.4062 65.5977H48.291V66.4648H45.2383L45.0684 68.9316C45.1934 68.9238 45.3262 68.918 45.4668 68.9141C45.6074 68.9062 45.7324 68.9023 45.8418 68.9023C46.2871 68.9023 46.6855 68.9609 47.0371 69.0781C47.3887 69.1953 47.6855 69.3633 47.9277 69.582C48.1738 69.7969 48.3594 70.0625 48.4844 70.3789C48.6133 70.6914 48.6777 71.043 48.6777 71.4336ZM53.9922 67.8008C53.9922 67.543 53.9512 67.3184 53.8691 67.127C53.791 66.9355 53.6816 66.7773 53.541 66.6523C53.4043 66.5234 53.2422 66.4277 53.0547 66.3652C52.8672 66.3027 52.6641 66.2715 52.4453 66.2715C52.2578 66.2715 52.0742 66.2969 51.8945 66.3477C51.7148 66.3984 51.5391 66.4688 51.3672 66.5586C51.1992 66.6484 51.0352 66.7559 50.875 66.8809C50.7188 67.0059 50.5723 67.1445 50.4355 67.2969V66.2656C50.7051 66.0039 51.0059 65.8047 51.3379 65.668C51.6738 65.5273 52.082 65.457 52.5625 65.457C52.9062 65.457 53.2246 65.5078 53.5176 65.6094C53.8105 65.707 54.0645 65.8516 54.2793 66.043C54.4941 66.2344 54.6621 66.4707 54.7832 66.752C54.9082 67.0332 54.9707 67.3555 54.9707 67.7188C54.9707 68.0508 54.9316 68.3516 54.8535 68.6211C54.7793 68.8906 54.6641 69.1445 54.5078 69.3828C54.3555 69.6211 54.1621 69.8496 53.9277 70.0684C53.6934 70.2871 53.418 70.5098 53.1016 70.7363C52.707 71.0176 52.3809 71.2578 52.123 71.457C51.8691 71.6562 51.666 71.8438 51.5137 72.0195C51.3652 72.1914 51.2598 72.3652 51.1973 72.541C51.1387 72.7129 51.1094 72.9121 51.1094 73.1387H55.293V74H50.1074V73.584C50.1074 73.2246 50.1465 72.9082 50.2246 72.6348C50.3027 72.3613 50.4316 72.1016 50.6113 71.8555C50.791 71.6094 51.0254 71.3633 51.3145 71.1172C51.6074 70.8711 51.9648 70.5938 52.3867 70.2852C52.6914 70.0664 52.9453 69.8574 53.1484 69.6582C53.3555 69.459 53.5215 69.2598 53.6465 69.0605C53.7715 68.8613 53.8594 68.6602 53.9102 68.457C53.9648 68.25 53.9922 68.0312 53.9922 67.8008ZM61.6152 71.4336C61.6152 71.8438 61.5449 72.2148 61.4043 72.5469C61.2637 72.8789 61.0625 73.1641 60.8008 73.4023C60.543 73.6406 60.2305 73.8242 59.8633 73.9531C59.4961 74.082 59.0879 74.1465 58.6387 74.1465C57.8574 74.1465 57.2773 74.0293 56.8984 73.7949V72.7754C57.4688 73.1426 58.0527 73.3262 58.6504 73.3262C58.9551 73.3262 59.2285 73.2812 59.4707 73.1914C59.7168 73.1016 59.9258 72.9766 60.0977 72.8164C60.2695 72.6562 60.4004 72.4629 60.4902 72.2363C60.584 72.0098 60.6309 71.7617 60.6309 71.4922C60.6309 70.9453 60.4473 70.5176 60.0801 70.209C59.7129 69.8965 59.1797 69.7402 58.4805 69.7402C58.3672 69.7402 58.248 69.7422 58.123 69.7461C57.998 69.75 57.873 69.7559 57.748 69.7637C57.623 69.7676 57.5 69.7734 57.3789 69.7812C57.2617 69.7891 57.1543 69.7988 57.0566 69.8105L57.3438 65.5977H61.2285V66.4648H58.1758L58.0059 68.9316C58.1309 68.9238 58.2637 68.918 58.4043 68.9141C58.5449 68.9062 58.6699 68.9023 58.7793 68.9023C59.2246 68.9023 59.623 68.9609 59.9746 69.0781C60.3262 69.1953 60.623 69.3633 60.8652 69.582C61.1113 69.7969 61.2969 70.0625 61.4219 70.3789C61.5508 70.6914 61.6152 71.043 61.6152 71.4336Z" fill="#212020"/>
<path d="M47.9805 85.5977V91.1465H49.0586V92.0254H47.9805V94H47.0312V92.0254H43.082V91.1934C43.4492 90.7793 43.8203 90.3379 44.1953 89.8691C44.5703 89.3965 44.9277 88.918 45.2676 88.4336C45.6113 87.9492 45.9277 87.4668 46.2168 86.9863C46.5098 86.502 46.7559 86.0391 46.9551 85.5977H47.9805ZM44.166 91.1465H47.0312V87.0332C46.7383 87.5449 46.4609 88.002 46.1992 88.4043C45.9375 88.8066 45.6875 89.1719 45.4492 89.5C45.2148 89.8281 44.9902 90.125 44.7754 90.3906C44.5605 90.6562 44.3574 90.9082 44.166 91.1465ZM55.1465 91.4336C55.1465 91.8438 55.0762 92.2148 54.9355 92.5469C54.7949 92.8789 54.5938 93.1641 54.332 93.4023C54.0742 93.6406 53.7617 93.8242 53.3945 93.9531C53.0273 94.082 52.6191 94.1465 52.1699 94.1465C51.3887 94.1465 50.8086 94.0293 50.4297 93.7949V92.7754C51 93.1426 51.584 93.3262 52.1816 93.3262C52.4863 93.3262 52.7598 93.2812 53.002 93.1914C53.248 93.1016 53.457 92.9766 53.6289 92.8164C53.8008 92.6562 53.9316 92.4629 54.0215 92.2363C54.1152 92.0098 54.1621 91.7617 54.1621 91.4922C54.1621 90.9453 53.9785 90.5176 53.6113 90.209C53.2441 89.8965 52.7109 89.7402 52.0117 89.7402C51.8984 89.7402 51.7793 89.7422 51.6543 89.7461C51.5293 89.75 51.4043 89.7559 51.2793 89.7637C51.1543 89.7676 51.0312 89.7734 50.9102 89.7812C50.793 89.7891 50.6855 89.7988 50.5879 89.8105L50.875 85.5977H54.7598V86.4648H51.707L51.5371 88.9316C51.6621 88.9238 51.7949 88.918 51.9355 88.9141C52.0762 88.9062 52.2012 88.9023 52.3105 88.9023C52.7559 88.9023 53.1543 88.9609 53.5059 89.0781C53.8574 89.1953 54.1543 89.3633 54.3965 89.582C54.6426 89.7969 54.8281 90.0625 54.9531 90.3789C55.082 90.6914 55.1465 91.043 55.1465 91.4336ZM61.9141 89.7637C61.9141 90.4668 61.8496 91.0898 61.7207 91.6328C61.5957 92.1758 61.4121 92.6348 61.1699 93.0098C60.9316 93.3809 60.6367 93.6641 60.2852 93.8594C59.9375 94.0508 59.541 94.1465 59.0957 94.1465C58.6738 94.1465 58.2969 94.0547 57.9648 93.8711C57.6367 93.6836 57.3594 93.4121 57.1328 93.0566C56.9062 92.7012 56.7344 92.2656 56.6172 91.75C56.5 91.2305 56.4414 90.6367 56.4414 89.9688C56.4414 89.2344 56.502 88.5859 56.623 88.0234C56.748 87.4609 56.9297 86.9902 57.168 86.6113C57.4062 86.2285 57.7012 85.9414 58.0527 85.75C58.4082 85.5547 58.8145 85.457 59.2715 85.457C61.0332 85.457 61.9141 86.8926 61.9141 89.7637ZM60.9297 89.8574C60.9297 87.4668 60.3613 86.2715 59.2246 86.2715C58.0254 86.2715 57.4258 87.4883 57.4258 89.9219C57.4258 92.1914 58.0137 93.3262 59.1895 93.3262C60.3496 93.3262 60.9297 92.1699 60.9297 89.8574Z" fill="#212020"/>
<path d="M48.584 111.621C48.584 112 48.5117 112.346 48.3672 112.658C48.2266 112.967 48.0254 113.232 47.7637 113.455C47.5059 113.674 47.1953 113.844 46.832 113.965C46.4688 114.086 46.0684 114.146 45.6309 114.146C44.8301 114.146 44.1934 113.994 43.7207 113.689V112.658C44.2871 113.104 44.9355 113.326 45.666 113.326C45.959 113.326 46.2227 113.289 46.457 113.215C46.6953 113.141 46.8984 113.033 47.0664 112.893C47.2383 112.752 47.3691 112.582 47.459 112.383C47.5527 112.184 47.5996 111.959 47.5996 111.709C47.5996 110.611 46.8184 110.062 45.2559 110.062H44.5586V109.248H45.2207C46.6035 109.248 47.2949 108.732 47.2949 107.701C47.2949 106.748 46.7676 106.271 45.7129 106.271C45.1191 106.271 44.5625 106.471 44.043 106.869V105.938C44.5781 105.617 45.2148 105.457 45.9531 105.457C46.3047 105.457 46.623 105.506 46.9082 105.604C47.1934 105.701 47.4375 105.838 47.6406 106.014C47.8438 106.189 48 106.4 48.1094 106.646C48.2227 106.893 48.2793 107.164 48.2793 107.461C48.2793 108.566 47.7207 109.277 46.6035 109.594V109.617C46.8887 109.648 47.1523 109.719 47.3945 109.828C47.6367 109.934 47.8457 110.072 48.0215 110.244C48.1973 110.416 48.334 110.619 48.4316 110.854C48.5332 111.084 48.584 111.34 48.584 111.621ZM55.3867 106.154C55.2578 106.377 55.1016 106.654 54.918 106.986C54.7383 107.318 54.5469 107.691 54.3438 108.105C54.1406 108.52 53.9336 108.965 53.7227 109.441C53.5117 109.918 53.3145 110.41 53.1309 110.918C52.9473 111.426 52.7852 111.941 52.6445 112.465C52.5078 112.984 52.4082 113.496 52.3457 114H51.3145C51.3848 113.5 51.4922 112.99 51.6367 112.471C51.7852 111.947 51.9512 111.436 52.1348 110.936C52.3223 110.432 52.5195 109.947 52.7266 109.482C52.9336 109.018 53.1348 108.59 53.3301 108.199C53.5254 107.809 53.7031 107.465 53.8633 107.168C54.0273 106.867 54.1582 106.633 54.2559 106.465H50.043V105.598H55.3867V106.154ZM61.6152 111.434C61.6152 111.844 61.5449 112.215 61.4043 112.547C61.2637 112.879 61.0625 113.164 60.8008 113.402C60.543 113.641 60.2305 113.824 59.8633 113.953C59.4961 114.082 59.0879 114.146 58.6387 114.146C57.8574 114.146 57.2773 114.029 56.8984 113.795V112.775C57.4688 113.143 58.0527 113.326 58.6504 113.326C58.9551 113.326 59.2285 113.281 59.4707 113.191C59.7168 113.102 59.9258 112.977 60.0977 112.816C60.2695 112.656 60.4004 112.463 60.4902 112.236C60.584 112.01 60.6309 111.762 60.6309 111.492C60.6309 110.945 60.4473 110.518 60.0801 110.209C59.7129 109.896 59.1797 109.74 58.4805 109.74C58.3672 109.74 58.248 109.742 58.123 109.746C57.998 109.75 57.873 109.756 57.748 109.764C57.623 109.768 57.5 109.773 57.3789 109.781C57.2617 109.789 57.1543 109.799 57.0566 109.811L57.3438 105.598H61.2285V106.465H58.1758L58.0059 108.932C58.1309 108.924 58.2637 108.918 58.4043 108.914C58.5449 108.906 58.6699 108.902 58.7793 108.902C59.2246 108.902 59.623 108.961 59.9746 109.078C60.3262 109.195 60.623 109.363 60.8652 109.582C61.1113 109.797 61.2969 110.062 61.4219 110.379C61.5508 110.691 61.6152 111.043 61.6152 111.434Z" fill="#212020"/>
<path d="M48.584 130.621C48.584 131 48.5117 131.346 48.3672 131.658C48.2266 131.967 48.0254 132.232 47.7637 132.455C47.5059 132.674 47.1953 132.844 46.832 132.965C46.4688 133.086 46.0684 133.146 45.6309 133.146C44.8301 133.146 44.1934 132.994 43.7207 132.689V131.658C44.2871 132.104 44.9355 132.326 45.666 132.326C45.959 132.326 46.2227 132.289 46.457 132.215C46.6953 132.141 46.8984 132.033 47.0664 131.893C47.2383 131.752 47.3691 131.582 47.459 131.383C47.5527 131.184 47.5996 130.959 47.5996 130.709C47.5996 129.611 46.8184 129.062 45.2559 129.062H44.5586V128.248H45.2207C46.6035 128.248 47.2949 127.732 47.2949 126.701C47.2949 125.748 46.7676 125.271 45.7129 125.271C45.1191 125.271 44.5625 125.471 44.043 125.869V124.938C44.5781 124.617 45.2148 124.457 45.9531 124.457C46.3047 124.457 46.623 124.506 46.9082 124.604C47.1934 124.701 47.4375 124.838 47.6406 125.014C47.8438 125.189 48 125.4 48.1094 125.646C48.2227 125.893 48.2793 126.164 48.2793 126.461C48.2793 127.566 47.7207 128.277 46.6035 128.594V128.617C46.8887 128.648 47.1523 128.719 47.3945 128.828C47.6367 128.934 47.8457 129.072 48.0215 129.244C48.1973 129.416 48.334 129.619 48.4316 129.854C48.5332 130.084 48.584 130.34 48.584 130.621ZM55.4453 128.764C55.4453 129.467 55.3809 130.09 55.252 130.633C55.127 131.176 54.9434 131.635 54.7012 132.01C54.4629 132.381 54.168 132.664 53.8164 132.859C53.4688 133.051 53.0723 133.146 52.627 133.146C52.2051 133.146 51.8281 133.055 51.4961 132.871C51.168 132.684 50.8906 132.412 50.6641 132.057C50.4375 131.701 50.2656 131.266 50.1484 130.75C50.0312 130.23 49.9727 129.637 49.9727 128.969C49.9727 128.234 50.0332 127.586 50.1543 127.023C50.2793 126.461 50.4609 125.99 50.6992 125.611C50.9375 125.229 51.2324 124.941 51.584 124.75C51.9395 124.555 52.3457 124.457 52.8027 124.457C54.5645 124.457 55.4453 125.893 55.4453 128.764ZM54.4609 128.857C54.4609 126.467 53.8926 125.271 52.7559 125.271C51.5566 125.271 50.957 126.488 50.957 128.922C50.957 131.191 51.5449 132.326 52.7207 132.326C53.8809 132.326 54.4609 131.17 54.4609 128.857ZM61.9141 128.764C61.9141 129.467 61.8496 130.09 61.7207 130.633C61.5957 131.176 61.4121 131.635 61.1699 132.01C60.9316 132.381 60.6367 132.664 60.2852 132.859C59.9375 133.051 59.541 133.146 59.0957 133.146C58.6738 133.146 58.2969 133.055 57.9648 132.871C57.6367 132.684 57.3594 132.412 57.1328 132.057C56.9062 131.701 56.7344 131.266 56.6172 130.75C56.5 130.23 56.4414 129.637 56.4414 128.969C56.4414 128.234 56.502 127.586 56.623 127.023C56.748 126.461 56.9297 125.99 57.168 125.611C57.4062 125.229 57.7012 124.941 58.0527 124.75C58.4082 124.555 58.8145 124.457 59.2715 124.457C61.0332 124.457 61.9141 125.893 61.9141 128.764ZM60.9297 128.857C60.9297 126.467 60.3613 125.271 59.2246 125.271C58.0254 125.271 57.4258 126.488 57.4258 128.922C57.4258 131.191 58.0137 132.326 59.1895 132.326C60.3496 132.326 60.9297 131.17 60.9297 128.857Z" fill="#212020"/>
<path d="M47.5234 146.801C47.5234 146.543 47.4824 146.318 47.4004 146.127C47.3223 145.936 47.2129 145.777 47.0723 145.652C46.9355 145.523 46.7734 145.428 46.5859 145.365C46.3984 145.303 46.1953 145.271 45.9766 145.271C45.7891 145.271 45.6055 145.297 45.4258 145.348C45.2461 145.398 45.0703 145.469 44.8984 145.559C44.7305 145.648 44.5664 145.756 44.4062 145.881C44.25 146.006 44.1035 146.145 43.9668 146.297V145.266C44.2363 145.004 44.5371 144.805 44.8691 144.668C45.2051 144.527 45.6133 144.457 46.0938 144.457C46.4375 144.457 46.7559 144.508 47.0488 144.609C47.3418 144.707 47.5957 144.852 47.8105 145.043C48.0254 145.234 48.1934 145.471 48.3145 145.752C48.4395 146.033 48.502 146.355 48.502 146.719C48.502 147.051 48.4629 147.352 48.3848 147.621C48.3105 147.891 48.1953 148.145 48.0391 148.383C47.8867 148.621 47.6934 148.85 47.459 149.068C47.2246 149.287 46.9492 149.51 46.6328 149.736C46.2383 150.018 45.9121 150.258 45.6543 150.457C45.4004 150.656 45.1973 150.844 45.0449 151.02C44.8965 151.191 44.791 151.365 44.7285 151.541C44.6699 151.713 44.6406 151.912 44.6406 152.139H48.8242V153H43.6387V152.584C43.6387 152.225 43.6777 151.908 43.7559 151.635C43.834 151.361 43.9629 151.102 44.1426 150.855C44.3223 150.609 44.5566 150.363 44.8457 150.117C45.1387 149.871 45.4961 149.594 45.918 149.285C46.2227 149.066 46.4766 148.857 46.6797 148.658C46.8867 148.459 47.0527 148.26 47.1777 148.061C47.3027 147.861 47.3906 147.66 47.4414 147.457C47.4961 147.25 47.5234 147.031 47.5234 146.801ZM53.9922 146.801C53.9922 146.543 53.9512 146.318 53.8691 146.127C53.791 145.936 53.6816 145.777 53.541 145.652C53.4043 145.523 53.2422 145.428 53.0547 145.365C52.8672 145.303 52.6641 145.271 52.4453 145.271C52.2578 145.271 52.0742 145.297 51.8945 145.348C51.7148 145.398 51.5391 145.469 51.3672 145.559C51.1992 145.648 51.0352 145.756 50.875 145.881C50.7188 146.006 50.5723 146.145 50.4355 146.297V145.266C50.7051 145.004 51.0059 144.805 51.3379 144.668C51.6738 144.527 52.082 144.457 52.5625 144.457C52.9062 144.457 53.2246 144.508 53.5176 144.609C53.8105 144.707 54.0645 144.852 54.2793 145.043C54.4941 145.234 54.6621 145.471 54.7832 145.752C54.9082 146.033 54.9707 146.355 54.9707 146.719C54.9707 147.051 54.9316 147.352 54.8535 147.621C54.7793 147.891 54.6641 148.145 54.5078 148.383C54.3555 148.621 54.1621 148.85 53.9277 149.068C53.6934 149.287 53.418 149.51 53.1016 149.736C52.707 150.018 52.3809 150.258 52.123 150.457C51.8691 150.656 51.666 150.844 51.5137 151.02C51.3652 151.191 51.2598 151.365 51.1973 151.541C51.1387 151.713 51.1094 151.912 51.1094 152.139H55.293V153H50.1074V152.584C50.1074 152.225 50.1465 151.908 50.2246 151.635C50.3027 151.361 50.4316 151.102 50.6113 150.855C50.791 150.609 51.0254 150.363 51.3145 150.117C51.6074 149.871 51.9648 149.594 52.3867 149.285C52.6914 149.066 52.9453 148.857 53.1484 148.658C53.3555 148.459 53.5215 148.26 53.6465 148.061C53.7715 147.861 53.8594 147.66 53.9102 147.457C53.9648 147.25 53.9922 147.031 53.9922 146.801ZM61.6152 150.434C61.6152 150.844 61.5449 151.215 61.4043 151.547C61.2637 151.879 61.0625 152.164 60.8008 152.402C60.543 152.641 60.2305 152.824 59.8633 152.953C59.4961 153.082 59.0879 153.146 58.6387 153.146C57.8574 153.146 57.2773 153.029 56.8984 152.795V151.775C57.4688 152.143 58.0527 152.326 58.6504 152.326C58.9551 152.326 59.2285 152.281 59.4707 152.191C59.7168 152.102 59.9258 151.977 60.0977 151.816C60.2695 151.656 60.4004 151.463 60.4902 151.236C60.584 151.01 60.6309 150.762 60.6309 150.492C60.6309 149.945 60.4473 149.518 60.0801 149.209C59.7129 148.896 59.1797 148.74 58.4805 148.74C58.3672 148.74 58.248 148.742 58.123 148.746C57.998 148.75 57.873 148.756 57.748 148.764C57.623 148.768 57.5 148.773 57.3789 148.781C57.2617 148.789 57.1543 148.799 57.0566 148.811L57.3438 144.598H61.2285V145.465H58.1758L58.0059 147.932C58.1309 147.924 58.2637 147.918 58.4043 147.914C58.5449 147.906 58.6699 147.902 58.7793 147.902C59.2246 147.902 59.623 147.961 59.9746 148.078C60.3262 148.195 60.623 148.363 60.8652 148.582C61.1113 148.797 61.2969 149.062 61.4219 149.379C61.5508 149.691 61.6152 150.043 61.6152 150.434Z" fill="#212020"/>
<path d="M47.2422 173H46.2812V165.74C46.207 165.814 46.0977 165.9 45.9531 165.998C45.8125 166.092 45.6523 166.186 45.4727 166.279C45.2969 166.373 45.1094 166.461 44.9102 166.543C44.7148 166.625 44.5234 166.689 44.3359 166.736V165.764C44.5469 165.705 44.7695 165.627 45.0039 165.529C45.2422 165.428 45.4746 165.316 45.7012 165.195C45.9316 165.07 46.1484 164.941 46.3516 164.809C46.5547 164.672 46.7305 164.539 46.8789 164.41H47.2422V173ZM55.1465 170.434C55.1465 170.844 55.0762 171.215 54.9355 171.547C54.7949 171.879 54.5938 172.164 54.332 172.402C54.0742 172.641 53.7617 172.824 53.3945 172.953C53.0273 173.082 52.6191 173.146 52.1699 173.146C51.3887 173.146 50.8086 173.029 50.4297 172.795V171.775C51 172.143 51.584 172.326 52.1816 172.326C52.4863 172.326 52.7598 172.281 53.002 172.191C53.248 172.102 53.457 171.977 53.6289 171.816C53.8008 171.656 53.9316 171.463 54.0215 171.236C54.1152 171.01 54.1621 170.762 54.1621 170.492C54.1621 169.945 53.9785 169.518 53.6113 169.209C53.2441 168.896 52.7109 168.74 52.0117 168.74C51.8984 168.74 51.7793 168.742 51.6543 168.746C51.5293 168.75 51.4043 168.756 51.2793 168.764C51.1543 168.768 51.0312 168.773 50.9102 168.781C50.793 168.789 50.6855 168.799 50.5879 168.811L50.875 164.598H54.7598V165.465H51.707L51.5371 167.932C51.6621 167.924 51.7949 167.918 51.9355 167.914C52.0762 167.906 52.2012 167.902 52.3105 167.902C52.7559 167.902 53.1543 167.961 53.5059 168.078C53.8574 168.195 54.1543 168.363 54.3965 168.582C54.6426 168.797 54.8281 169.062 54.9531 169.379C55.082 169.691 55.1465 170.043 55.1465 170.434ZM61.9141 168.764C61.9141 169.467 61.8496 170.09 61.7207 170.633C61.5957 171.176 61.4121 171.635 61.1699 172.01C60.9316 172.381 60.6367 172.664 60.2852 172.859C59.9375 173.051 59.541 173.146 59.0957 173.146C58.6738 173.146 58.2969 173.055 57.9648 172.871C57.6367 172.684 57.3594 172.412 57.1328 172.057C56.9062 171.701 56.7344 171.266 56.6172 170.75C56.5 170.23 56.4414 169.637 56.4414 168.969C56.4414 168.234 56.502 167.586 56.623 167.023C56.748 166.461 56.9297 165.99 57.168 165.611C57.4062 165.229 57.7012 164.941 58.0527 164.75C58.4082 164.555 58.8145 164.457 59.2715 164.457C61.0332 164.457 61.9141 165.893 61.9141 168.764ZM60.9297 168.857C60.9297 166.467 60.3613 165.271 59.2246 165.271C58.0254 165.271 57.4258 166.488 57.4258 168.922C57.4258 171.191 58.0137 172.326 59.1895 172.326C60.3496 172.326 60.9297 171.17 60.9297 168.857Z" fill="#212020"/>
<rect x="33" y="99" width="20" height="20" transform="rotate(-180 33 99)" fill="#428AFC"/>
<rect x="33" y="79" width="20" height="20" transform="rotate(-180 33 79)" fill="#0F5ED9"/>
<rect x="33" y="59" width="20" height="20" transform="rotate(-180 33 59)" fill="#0541A1"/>
<rect x="33" y="119" width="20" height="20" transform="rotate(-180 33 119)" fill="#5BB2FC"/>
<rect x="33" y="139" width="20" height="20" transform="rotate(-180 33 139)" fill="#79CDFD"/>
<rect x="33" y="159" width="20" height="20" transform="rotate(-180 33 159)" fill="#BEE7FE"/>
<rect x="33" y="179" width="20" height="20" transform="rotate(-180 33 179)" fill="#EFF3FF"/>
</svg>
